<svg width="14" height="20" viewBox="0 0 14 20" fill="none" xmlns="http://www.w3.org/2000/svg">
<path fill-rule="evenodd" clip-rule="evenodd" d="M10.5935 1.77191V0.385559C10.5935 0.172607 10.4026 0 10.1672 0H3.83282C3.59735 0 3.40649 0.172607 3.40649 0.385559V1.77191V2.01288V2.25385H0.426331C0.190857 2.25385 0 2.42645 0 2.6394V3.61444C0 3.82739 0.190857 4 0.426331 4H1.16266H12.8373H13.5737C13.8091 4 14 3.82739 14 3.61444V2.6394C14 2.42645 13.8091 2.25385 13.5737 2.25385H10.5935V2.01288V1.77191ZM1.43823 20C1.19617 20 1 19.799 1 19.5509V5H13V19.5509C13 19.799 12.8038 20 12.5618 20H1.43823ZM11.1083 7.47626H9.46497V17.2672H11.1083V7.47626ZM6.17834 7.47626H7.82166V17.2672H6.17834V7.47626ZM4.53497 7.47626H2.89166V17.2672H4.53497V7.47626ZM5 2H8.9895V1.77808V1.44739V1H5V1.44739V1.77808V2Z" fill="white"/>
</svg>
