<svg width="42" height="42" viewBox="0 0 42 42" fill="none" xmlns="http://www.w3.org/2000/svg">
<path fill-rule="evenodd" clip-rule="evenodd" d="M20 40C31.0457 40 40 31.0457 40 20C40 8.9543 31.0457 0 20 0C8.9543 0 0 8.9543 0 20C0 31.0457 8.9543 40 20 40Z" transform="translate(1 1.49597)" stroke="#EAAC44"/>
<path fill-rule="evenodd" clip-rule="evenodd" d="M20.7648 2.65076C20.9414 2.65076 21.0298 2.73914 21.1182 2.82751C21.2065 2.91589 21.2065 3.09265 21.2065 3.09265L19.4393 10.1615C19.4393 10.3381 19.2626 10.5149 19.0859 10.5149L6.18518 12.2821C6.5387 12.9006 7.24561 13.254 7.95239 13.254H18.0255C18.2906 13.254 18.4674 13.4308 18.4674 13.6959C18.4674 13.9609 18.2906 14.1377 18.0255 14.1377H7.86414C6.45032 14.1377 5.125 13.0774 4.85986 11.6636L2.73926 0.883545H0.441772C0.176758 0.883545 0 0.706909 0 0.441772C0 0.176636 0.176758 0 0.441772 0H3.09265C3.26929 0 3.53442 0.176636 3.53442 0.353394L3.9762 2.65076H20.7648ZM5.74341 11.3984L18.644 9.7196L20.1462 3.44604H4.15295L5.74341 11.3984Z" transform="translate(9.81824 12.7638)" fill="#333333"/>
<path fill-rule="evenodd" clip-rule="evenodd" d="M0 2.20898C0 0.971924 0.971924 0 2.20898 0C3.44604 0 4.41809 0.971924 4.41797 2.20898C4.41797 3.44604 3.44604 4.41797 2.20898 4.41797C0.971924 4.41797 0 3.44604 0 2.20898ZM0.883545 2.20898C0.883545 2.91577 1.50208 3.5343 2.20898 3.5343C2.91589 3.5343 3.5343 2.91577 3.5343 2.20898C3.5343 1.50208 2.91589 0.883545 2.20898 0.883545C1.50208 0.883545 0.883545 1.50208 0.883545 2.20898Z" transform="translate(15.1199 27.785)" fill="#333333"/>
<path fill-rule="evenodd" clip-rule="evenodd" d="M0 2.20898C0 0.971924 0.971924 0 2.20898 0C3.44604 0 4.41797 0.971924 4.41797 2.20898C4.41797 3.44604 3.44604 4.41797 2.20898 4.41797C0.971924 4.41797 0 3.44604 0 2.20898ZM0.883545 2.20898C0.883545 2.91577 1.50208 3.5343 2.20898 3.5343C2.91577 3.5343 3.5343 2.91577 3.5343 2.20898C3.5343 1.50208 2.91589 0.883545 2.20898 0.883545C1.50208 0.883545 0.883545 1.50208 0.883545 2.20898Z" transform="translate(23.9559 27.785)" fill="#333333"/>
</svg>
