<svg width="42" height="42" fill="none" xmlns="http://www.w3.org/2000/svg"><path clip-rule="evenodd" d="M21 41.496c11.046 0 20-8.954 20-20s-8.954-20-20-20-20 8.954-20 20 8.954 20 20 20z" stroke="#EAAC44"/><path fill-rule="evenodd" clip-rule="evenodd" d="M30.583 15.415c.177 0 .265.088.353.176.089.089.089.265.089.265l-1.767 7.07a.38.38 0 0 1-.354.353l-12.9 1.767c.353.618 1.06.972 1.767.972h10.073c.265 0 .442.177.442.442s-.177.442-.442.442H17.682c-1.413 0-2.739-1.06-3.004-2.475l-2.12-10.78H10.26c-.265 0-.442-.176-.442-.441 0-.266.177-.442.442-.442h2.65c.178 0 .443.176.443.353l.441 2.298h16.789zm-15.021 8.747l12.9-1.679 1.502-6.273H13.971l1.59 7.952zm-.442 5.832c0-1.237.972-2.209 2.209-2.209s2.209.972 2.209 2.209a2.188 2.188 0 0 1-2.21 2.209 2.187 2.187 0 0 1-2.208-2.209zm.883 0c0 .707.619 1.325 1.326 1.325.707 0 1.325-.618 1.325-1.325s-.618-1.325-1.325-1.325-1.326.618-1.326 1.325zm7.953 0c0-1.237.972-2.209 2.209-2.209s2.209.972 2.209 2.209a2.188 2.188 0 0 1-2.21 2.209 2.187 2.187 0 0 1-2.208-2.209zm.883 0c0 .707.619 1.325 1.326 1.325.707 0 1.325-.618 1.325-1.325s-.618-1.325-1.325-1.325-1.326.618-1.326 1.325z" fill="#333"/></svg>