<svg width="12" height="15" viewBox="0 0 12 15" fill="none" xmlns="http://www.w3.org/2000/svg">
<path d="M2.87336 6.97995C4.46017 6.97995 5.74665 5.41745 5.74665 3.49C5.74665 1.5625 5.32428 0 2.87336 0C0.422451 0 0 1.5625 0 3.49C0 5.41745 1.28648 6.97995 2.87336 6.97995Z" transform="translate(3.35049 0.662476)" fill="#252B7F"/>
<path d="M10.8478 4.92005C10.7946 1.56238 10.3561 0.605623 7.00042 0C7.00042 0 6.52806 0.601912 5.42708 0.601912C4.32609 0.601912 3.85365 0 3.85365 0C0.534589 0.599017 0.0694028 1.54158 0.00823699 4.81097C0.0032214 5.07794 0.000897098 5.09197 0 5.06098C0.000203886 5.11905 0.000448549 5.22645 0.000448549 5.41374C0.000448549 5.41374 0.799356 7.02428 5.42708 7.02428C10.0547 7.02428 10.8537 5.41374 10.8537 5.41374C10.8537 5.29341 10.8538 5.20973 10.8539 5.15281C10.853 5.17197 10.8512 5.13483 10.8478 4.92005Z" transform="translate(0.796753 7.91016)" fill="#252B7F"/>
</svg>
