<svg width="12" height="16" viewBox="0 0 12 16" fill="none" xmlns="http://www.w3.org/2000/svg">
<path fill-rule="evenodd" clip-rule="evenodd" d="M9.80978 3.24353C9.87604 3.39026 9.9465 3.54639 9.98618 3.69519L9.99597 3.724C10.0422 3.85889 10.2278 4.40002 10.2278 4.56628V5.26562C10.2278 6.50171 9.43277 7.75171 8.63852 9.00037C8.33887 9.47144 8.03931 9.94238 7.78262 10.4124C7.73587 10.4996 7.66092 10.5901 7.58463 10.6821C7.51056 10.7716 7.43527 10.8624 7.38327 10.9534C7.319 11.0659 7.25058 11.1805 7.18137 11.2965C7.08005 11.4662 6.97708 11.6388 6.88309 11.8114C6.56891 12.347 6.25143 12.8944 5.93207 13.4449C5.66135 13.9115 5.38931 14.3805 5.11679 14.8467L4.69946 14.1727C3.87369 12.8397 3.04602 11.5037 2.24417 10.1486C2.06601 9.84631 1.87552 9.54004 1.68356 9.23157C0.937164 8.03198 0.169159 6.79761 0.0220642 5.62195C0.00912476 5.50317 0 5.26562 0 5.23926V4.60559C0.329926 1.50452 2.80112 0 5.04483 0C6.72089 0 8.79663 0.818237 9.74661 3.10132C9.76636 3.14734 9.78784 3.19482 9.80978 3.24353ZM3.34811 5.63525C3.70444 6.54602 4.42636 6.87573 5.08591 6.87573C6.14172 6.87573 7.0152 6.03137 7.0152 4.97546C7.0152 3.91968 6.19861 3.07495 5.14279 3.07495C4.28516 3.07495 3.29932 3.60291 3.29932 4.76404V5.1731L3.29929 5.17883C3.29904 5.22766 3.29761 5.49731 3.34811 5.63525Z" transform="translate(0.855713 0.456665)" fill="#242A7E"/>
</svg>
