<svg width="15" height="16" viewBox="0 0 15 16" fill="none" xmlns="http://www.w3.org/2000/svg">
<path d="M14.4957 11.4379C14.5264 11.6733 14.4546 11.878 14.2807 12.052L12.2388 14.0785C12.1467 14.1808 12.0264 14.2679 11.878 14.3395C11.7296 14.4112 11.5838 14.4572 11.4405 14.4777C11.4303 14.4777 11.3995 14.4803 11.3483 14.4854C11.2972 14.4905 11.2307 14.4931 11.1488 14.4931C10.9543 14.4931 10.6395 14.4599 10.2045 14.3933C9.76953 14.3267 9.23732 14.163 8.60791 13.902C7.97834 13.641 7.26446 13.2495 6.46614 12.7275C5.66781 12.2056 4.81826 11.4891 3.91756 10.5781C3.2011 9.87189 2.60745 9.19636 2.13663 8.55157C1.66581 7.90672 1.28711 7.31052 1.00052 6.76293C0.713908 6.21535 0.498968 5.71894 0.355674 5.27371C0.212381 4.82847 0.115146 4.44465 0.0639702 4.12224C0.012794 3.79983 -0.00767643 3.54651 0.00255881 3.36228C0.012794 3.17804 0.0179117 3.07569 0.0179117 3.05522C0.0383821 2.91192 0.0844407 2.76607 0.156087 2.61766C0.227734 2.46925 0.314734 2.34899 0.417086 2.25687L2.45902 0.21494C2.60231 0.0716466 2.76607 0 2.95031 0C3.08336 0 3.20107 0.0383821 3.30342 0.115146C3.40577 0.191911 3.49277 0.286587 3.56442 0.399174L5.20718 3.5158C5.29929 3.67957 5.32488 3.85868 5.28394 4.05315C5.243 4.24762 5.156 4.41139 5.02294 4.54444L4.27065 5.29673C4.25018 5.31721 4.23227 5.35047 4.21692 5.39653C4.20156 5.44259 4.19389 5.48097 4.19389 5.51167C4.23483 5.72661 4.32695 5.97226 4.47024 6.24861C4.59306 6.49426 4.78241 6.79364 5.03829 7.14675C5.29418 7.49987 5.65753 7.90669 6.12835 8.36728C6.58893 8.83815 6.99834 9.20401 7.35658 9.46506C7.71473 9.72596 8.01421 9.91794 8.25474 10.0408C8.49527 10.1636 8.67951 10.2378 8.80742 10.2633L8.99928 10.3017C9.01975 10.3017 9.05309 10.294 9.0991 10.2787C9.14516 10.2633 9.17842 10.2454 9.19892 10.2249L10.074 9.33446C10.2583 9.17072 10.4732 9.08884 10.7189 9.08884C10.8929 9.08884 11.031 9.11952 11.1334 9.18096H11.1487L14.1118 10.9312C14.3268 11.0643 14.4547 11.2332 14.4957 11.4379Z" transform="translate(0.255554 0.903198)" fill="#252B7F"/>
</svg>
