<svg width="32" height="33" viewBox="0 0 32 33" fill="none" xmlns="http://www.w3.org/2000/svg">
<path fill-rule="evenodd" clip-rule="evenodd" d="M15 30.2439C23.2843 30.2439 30 23.4736 30 15.122C30 6.77033 23.2843 0 15 0C6.71573 0 0 6.77033 0 15.122C0 23.4736 6.71573 30.2439 15 30.2439Z" transform="translate(1 1.375)" fill="white" stroke="#EBAD45"/>
<path fill-rule="evenodd" clip-rule="evenodd" d="M15.5735 2.00427C15.7061 2.00427 15.7724 2.07104 15.8386 2.13782C15.9049 2.20471 15.9049 2.33826 15.9049 2.33826L14.5795 7.68311C14.5795 7.81665 14.447 7.95032 14.3144 7.95032L4.63892 9.2865C4.90405 9.75415 5.43414 10.0214 5.96436 10.0214H13.5192C13.718 10.0214 13.8505 10.155 13.8505 10.3555C13.8505 10.5558 13.718 10.6895 13.5192 10.6895H5.89807C4.83777 10.6895 3.84369 9.8877 3.6449 8.81885L2.05438 0.668091H0.33136C0.132568 0.668091 0 0.534424 0 0.333984C0 0.133545 0.132568 0 0.33136 0H2.31946C2.45203 0 2.65082 0.133545 2.65082 0.267212L2.98218 2.00427H15.5735ZM4.30756 8.61829L13.983 7.34888L15.1097 2.60547H3.11469L4.30756 8.61829Z" transform="translate(7.61365 9.89465)" fill="#333333"/>
<path fill-rule="evenodd" clip-rule="evenodd" d="M0 1.67017C0 0.734863 0.729004 0 1.65674 0C2.58453 0 3.31354 0.734863 3.31348 1.67017C3.31348 2.60547 2.58453 3.34045 1.65674 3.34045C0.729004 3.34045 0 2.60559 0 1.67017ZM0.66272 1.67029C0.66272 2.20471 1.12659 2.67236 1.6568 2.67236C2.18695 2.67236 2.65082 2.20471 2.65082 1.67029C2.65082 1.13574 2.18695 0.668091 1.6568 0.668091C1.12659 0.668091 0.66272 1.13574 0.66272 1.67029Z" transform="translate(11.5898 21.2522)" fill="#333333"/>
<path fill-rule="evenodd" clip-rule="evenodd" d="M0 1.67017C0 0.734863 0.728943 0 1.65674 0C2.58453 0 3.31348 0.734863 3.31348 1.67017C3.31348 2.60547 2.58453 3.34045 1.65674 3.34045C0.729004 3.34045 0 2.60559 0 1.67017ZM0.66272 1.67029C0.66272 2.20471 1.12659 2.67236 1.6568 2.67236C2.18689 2.67236 2.65082 2.20471 2.65082 1.67029C2.65082 1.13574 2.18695 0.668091 1.6568 0.668091C1.12659 0.668091 0.66272 1.13574 0.66272 1.67029Z" transform="translate(18.2169 21.2522)" fill="#333333"/>
</svg>
