<svg width="42" height="38" fill="none" xmlns="http://www.w3.org/2000/svg"><path fill-rule="evenodd" clip-rule="evenodd" d="M39.2 0H7C5.454 0 4.2 1.26 4.2 2.815v22.518H.7c-.387 0-.7.315-.7.704a2.808 2.808 0 0 0 2.8 2.815h20.3v8.444a.698.698 0 1 0 1.195.497L28 34.07l3.705 3.725a.698.698 0 0 0 1.195-.498v-8.444H35c1.546 0 2.8-1.26 2.8-2.815V3.518h3.5c.387 0 .7-.315.7-.703A2.807 2.807 0 0 0 39.2 0zm-2.8 2.815v22.518h-2.8v1.408h2.612c-.25.435-.712.703-1.212.704h-2.1v-.704h-1.4v8.856l-3.005-3.02a.697.697 0 0 0-.99 0l-3.005 3.02v-8.856h-1.4v.704H2.8a1.4 1.4 0 0 1-1.212-.704H22.4v-1.408H5.6V2.815c0-.778.627-1.408 1.4-1.408h29.79a2.798 2.798 0 0 0-.39 1.408zm3.501-1.217a1.396 1.396 0 0 0-1.913.513h2.424a1.405 1.405 0 0 0-.51-.513z" fill="#EBAD45"/><path fill-rule="evenodd" clip-rule="evenodd" d="M33.038 19.994l.871 1.607a.71.71 0 0 1-.31.98l-1.622.767-.21 1.829a.705.705 0 0 1-.272.483.655.655 0 0 1-.531.12l-1.753-.357L28 26.775a.666.666 0 0 1-.998 0l-1.212-1.352-1.753.358a.685.685 0 0 1-.807-.604l-.21-1.83-1.622-.767a.712.712 0 0 1-.31-.98l.875-1.606-.874-1.605a.71.71 0 0 1 .31-.98l1.622-.767.21-1.828a.681.681 0 0 1 .807-.604l1.752.358L27 13.215l.008-.008a.686.686 0 0 1 .99.008l1.212 1.353 1.753-.358a.685.685 0 0 1 .807.604l.21 1.828 1.622.766a.712.712 0 0 1 .31.98l-.875 1.606zm-.672 1.627l-.7-1.285a.719.719 0 0 1 0-.685l.7-1.286-1.3-.614a.699.699 0 0 1-.392-.555l-.167-1.466-1.405.287a.658.658 0 0 1-.631-.21l-.97-1.083-.972 1.086c-.16.18-.4.26-.63.21l-1.406-.286-.167 1.466a.7.7 0 0 1-.392.554l-1.3.614.7 1.286v-.003a.705.705 0 0 1 0 .685l-.7 1.286 1.3.614a.699.699 0 0 1 .392.555l.167 1.466 1.405-.287a.67.67 0 0 1 .63.21l.972 1.084.97-1.084c.16-.18.4-.26.632-.21l1.405.286.167-1.466a.7.7 0 0 1 .392-.554l1.3-.615z" fill="#EBAD45"/><path fill-rule="evenodd" clip-rule="evenodd" d="M24 20.5a3.5 3.5 0 1 1 7 0 3.5 3.5 0 0 1-7 0zm1.4 0a2.1 2.1 0 1 0 4.2 0 2.1 2.1 0 0 0-4.2 0z" fill="#EBAD45"/><path d="M15 4h11v1H15V4zM8 8h25v1H8V8zm0 3h25v1H8v-1zm1 9h9v1H9v-1z" fill="#EBAD45"/></svg>