<svg width="39" height="29" fill="none" xmlns="http://www.w3.org/2000/svg"><path fill-rule="evenodd" clip-rule="evenodd" d="M5 13.92C5 12.522 5.87 12 7.007 12 8.13 12 9 12.521 9 13.92v2.16C9 17.478 8.13 18 7.007 18 5.87 18 5 17.479 5 16.08v-2.16zm2.007 2.963c.491 0 .8-.253.8-.804v-2.158c0-.551-.309-.805-.8-.805-.491 0-.786.254-.786.805v2.158c0 .551.295.804.786.804z" fill="#EBAD45"/><path d="M13.222 12c-.233 0-.45.104-.56.31l-5.6 10.787A.669.669 0 0 0 7 23.35c0 .31.296.651.731.651.264 0 .513-.118.607-.325l5.6-10.743a.557.557 0 0 0 .062-.266c0-.4-.42-.666-.778-.666z" fill="#EBAD45"/><path fill-rule="evenodd" clip-rule="evenodd" d="M12 18.92c0-1.399.87-1.92 2.007-1.92C15.13 17 16 17.521 16 18.92v2.16c0 1.414-.87 1.92-1.993 1.92C12.87 23 12 22.494 12 21.08v-2.16zm2.007 2.963c.491 0 .8-.253.8-.804v-2.158c0-.551-.309-.804-.8-.804-.491 0-.786.253-.786.804v2.158c0 .551.295.804.786.804z" fill="#EBAD45"/><path d="M33.362 13h-2.724c-.352 0-.638.224-.638.5s.285.5.638.5h2.724c.352 0 .638-.224.638-.5s-.286-.5-.638-.5zm-5.009 0h-8.706c-.357 0-.647.224-.647.5s.29.5.647.5h8.706c.357 0 .647-.224.647-.5s-.29-.5-.647-.5zm4.993 5H19.654c-.361 0-.654.224-.654.5s.293.5.654.5h13.692c.361 0 .654-.224.654-.5s-.293-.5-.654-.5zm-4.026 4h-5.64c-.376 0-.68.224-.68.5s.304.5.68.5h5.64c.376 0 .68-.224.68-.5s-.304-.5-.68-.5zm-8.085 0h-1.47c-.423 0-.765.224-.765.5s.343.5.765.5h1.47c.423 0 .765-.224.765-.5s-.343-.5-.765-.5z" fill="#EBAD45"/><path fill-rule="evenodd" clip-rule="evenodd" d="M2.38 0h34.24C37.934 0 39 1.057 39 2.356v24.288c0 1.3-1.067 2.356-2.38 2.356H2.38C1.066 29 0 27.943 0 26.644V2.356C0 1.056 1.067 0 2.38 0zm34.24 27.695c.586 0 1.061-.472 1.062-1.05V8.874H1.319v17.77c0 .578.475 1.05 1.06 1.05h34.242zM1.345 7.569V4.752h36.303V7.57H1.345zM1.32 3.447h36.363V2.356c0-.58-.476-1.05-1.061-1.05H2.379c-.585 0-1.06.47-1.06 1.05v1.09z" fill="#EBAD45"/></svg>