<svg width="28" height="27" fill="none" xmlns="http://www.w3.org/2000/svg"><path fill-rule="evenodd" clip-rule="evenodd" d="M7.26 23.808a2.693 2.693 0 0 1 2.72-2.72 2.693 2.693 0 0 1 2.72 2.72 2.693 2.693 0 0 1-2.72 2.72 2.693 2.693 0 0 1-2.72-2.72zm1.087 0c0 .87.762 1.632 1.632 1.632.87 0 1.632-.762 1.632-1.632 0-.87-.761-1.632-1.632-1.632-.87 0-1.632.762-1.632 1.632zm9.792 0a2.693 2.693 0 0 1 2.72-2.72 2.694 2.694 0 0 1 2.72 2.72 2.693 2.693 0 0 1-2.72 2.72 2.693 2.693 0 0 1-2.72-2.72zm1.088 0c0 .87.761 1.632 1.632 1.632.87 0 1.632-.762 1.632-1.632 0-.87-.762-1.632-1.632-1.632-.87 0-1.632.762-1.632 1.632zm7.072-19.951c.217 0 .326.109.435.217.109.11.109.327.109.327l-2.176 8.703a.468.468 0 0 1-.436.436L8.347 15.715c.436.762 1.306 1.197 2.176 1.197h12.403c.326 0 .544.218.544.544 0 .326-.218.544-.544.544H10.414c-1.74 0-3.372-1.305-3.699-3.046L4.105 1.68h-2.83c-.326 0-.543-.218-.543-.544 0-.327.217-.544.544-.544h3.263c.218 0 .544.217.544.435l.544 2.829H26.3zM7.803 14.627l15.884-2.067 1.85-7.724H5.845l1.958 9.791z" fill="#fff" stroke="#fff" stroke-width=".4"/><path fill-rule="evenodd" clip-rule="evenodd" d="M14.99 9.7h-2.227v-.83h2.226V6.608h.888V8.87h2.262v.83h-2.262v2.285h-.888V9.699z" fill="#fff" stroke="#fff" stroke-width=".4"/></svg>