<svg width="36" height="36" fill="none" xmlns="http://www.w3.org/2000/svg"><path fill-rule="evenodd" clip-rule="evenodd" d="M7.62 5.202h1.276c.609 0 1.104.513 1.104 1.144v3.51C10 10.486 9.505 11 8.896 11H5.104C4.495 11 4 10.487 4 9.856V6.077C4 1.29 6.64.13 8.856.001c.192-.01.381.06.521.197.14.138.22.328.22.528V2.9c0 .376-.277.69-.638.723-.361.034-1.147.108-1.338 1.58zM5.403 9.548h3.196V6.654H6.877a.714.714 0 0 1-.701-.726c0-2.455 1.08-3.329 2.019-3.625V1.54c-1.36.263-2.793 1.196-2.793 4.537v3.47zm9.217-4.346h1.276c.609 0 1.104.513 1.104 1.144v3.51c0 .63-.495 1.144-1.104 1.144h-3.792C11.495 11 11 10.487 11 9.856V6.077C11 1.29 13.64.13 15.856.001c.192-.01.38.06.521.197.14.138.22.328.22.528V2.9c0 .376-.277.69-.638.723-.361.034-1.147.108-1.338 1.58zm-2.218 4.346h3.196V6.654h-1.721a.714.714 0 0 1-.701-.726c0-2.455 1.08-3.329 2.019-3.625V1.54c-1.36.263-2.793 1.196-2.793 4.537v3.47z" fill="#EBAD45"/><path d="M19.854 5.146a.504.504 0 0 0-.707 0 .504.504 0 0 0 0 .708.504.504 0 0 0 .707 0 .504.504 0 0 0 0-.708z" fill="#EBAD45"/><path d="M23.503 5h-.886a.709.709 0 0 0-.703.714c0 .394.315.714.703.714h.886c6.116 0 11.09 5.053 11.09 11.263 0 5.301-3.701 9.937-8.802 11.023a.712.712 0 0 0-.558.699v4.149l-4.331-4.398a.698.698 0 0 0-.497-.21h-7.908c-6.116 0-11.09-5.052-11.09-11.263 0-1.914.48-3.804 1.39-5.466a.72.72 0 0 0-.272-.97.697.697 0 0 0-.956.276A12.854 12.854 0 0 0 0 17.691c0 6.998 5.606 12.692 12.497 12.692h7.616l5.326 5.408a.697.697 0 0 0 .766.155.714.714 0 0 0 .434-.66v-5.307a12.528 12.528 0 0 0 6.525-4.238A12.834 12.834 0 0 0 36 17.691C36 10.693 30.394 5.001 23.503 5z" fill="#EBAD45"/><path d="M27.286 13H9.714c-.394 0-.714.224-.714.5s.32.5.714.5h17.572c.394 0 .714-.224.714-.5s-.32-.5-.714-.5zm0 3H9.714c-.394 0-.714.224-.714.5s.32.5.714.5h17.572c.394 0 .714-.224.714-.5s-.32-.5-.714-.5zm0 4H9.714c-.394 0-.714.224-.714.5s.32.5.714.5h17.572c.394 0 .714-.224.714-.5s-.32-.5-.714-.5zm-.014 4h-9.544c-.402 0-.728.224-.728.5s.326.5.728.5h9.544c.402 0 .728-.224.728-.5s-.326-.5-.728-.5zm-13.264 0h-.016c-.548 0-.992.224-.992.5s.444.5.992.5h.016c.548 0 .992-.224.992-.5s-.444-.5-.992-.5z" fill="#EBAD45"/></svg>