<svg width="22" height="21" viewBox="0 0 22 21" fill="none" xmlns="http://www.w3.org/2000/svg">
<path fill-rule="evenodd" clip-rule="evenodd" d="M18.204 2.73911L19.9594 13.6963H20.9495V18.6775H11.0242V13.6963H11.9489V7.06072H10.4745H9.00018V13.6963H9.92389V18.6775H0V13.6963H0.989807L2.74493 2.73911H3.69373V0H7.89362V2.73911H9.00024V3.69314H10.4746H11.949V2.73911H13.0556V0H17.2556V2.73911H18.204ZM16.3826 0.872894H13.9285V2.73911H16.3826V0.872894ZM17.4598 3.612L17.8725 6.18787H12.8218V3.612H17.4598ZM7.02069 0.872894H4.56653V2.73911H7.02069V0.872894ZM8.12732 3.612V6.18787H3.07654L3.48914 3.612H8.12732ZM0.872925 17.8046H9.05103V14.5692H0.872925V17.8046ZM8.12732 13.6963H1.87378L2.93671 7.06077H8.12732V13.6963ZM9.00018 6.18783H10.4745H11.9489V4.56603H10.4745H9.00018V6.18783ZM12.8218 7.06072H18.0123L19.0754 13.6962H12.8218V7.06072ZM11.8972 17.8046H20.0766V14.5692H11.8972V17.8046Z" transform="translate(0.741089 1.0834)" fill="#252B7F" stroke="#252B7F" stroke-width="0.5"/>
</svg>
