<svg width="24" height="23" viewBox="0 0 24 23" fill="none" xmlns="http://www.w3.org/2000/svg">
<path d="M3.96699 1.79537L2.41069 0.241212C2.25 0.0805226 2.03872 0 1.82779 0C1.61651 0 1.40523 0.0801663 1.24489 0.240855L0 1.48219L2.72209 4.19929L3.96699 2.95832C4.28872 2.63694 4.28872 2.11568 3.96699 1.79537Z" transform="translate(18.0792 0.963623)" fill="#252B7F"/>
<path d="M0 7.48433L2.72209 10.2018L10.2203 2.71746L7.49823 0L0 7.48433Z" transform="translate(9.99844 3.02759)" fill="#252B7F"/>
<path d="M0.581117 0L0 3.2968L3.30321 2.7171L0.581117 0Z" transform="translate(8.8298 11.093)" fill="#252B7F"/>
<path d="M17.0654 17.0644H2.52445V2.52394H12.7863L15.3153 0H1.63249C0.734468 0 0 0.734468 0 1.63249V17.9563C0 18.8539 0.734468 19.5883 1.63249 19.5883H17.9568C18.8539 19.5883 19.5883 18.8539 19.5883 17.9563V6.28512L17.0644 8.80503L17.0654 17.0644Z" transform="translate(0.172119 2.74878)" fill="#252B7F"/>
</svg>
