<svg width="21" height="21" viewBox="0 0 21 21" fill="none" xmlns="http://www.w3.org/2000/svg">
<path d="M16.3741 0V4.49005H2.63974V0H0V5.80992C0 6.53837 0.590106 7.12914 1.32184 7.12914H17.692C18.4231 7.12914 19.0139 6.53903 19.0139 5.80992V0H16.3741Z" transform="translate(1.18781 12.8938)" fill="#252B7F"/>
<path d="M4.02108 12.0814L0.241775 7.51467C0.241775 7.51467 -0.33325 6.97178 0.290295 6.97178C0.91384 6.97178 2.41992 6.97178 2.41992 6.97178C2.41992 6.97178 2.41992 6.60656 2.41992 6.04334C2.41992 4.4376 2.41992 1.51526 2.41992 0.323903C2.41992 0.323903 2.33534 0 2.82316 0C3.31492 0 5.4688 0 5.8209 0C6.17234 0 6.16447 0.27276 6.16447 0.27276C6.16447 1.42806 6.16447 4.45137 6.16447 6.00466C6.16447 6.50821 6.16447 6.83474 6.16447 6.83474C6.16447 6.83474 7.37222 6.83474 8.13018 6.83474C8.88683 6.83474 8.31705 7.40321 8.31705 7.40321C8.31705 7.40321 5.10163 11.6716 4.65315 12.1195C4.33055 12.444 4.02108 12.0814 4.02108 12.0814Z" transform="translate(6.43207 0.367188)" fill="#252B7F"/>
</svg>
