<svg width="16" height="16" viewBox="0 0 16 16" fill="none" xmlns="http://www.w3.org/2000/svg">
<path fill-rule="evenodd" clip-rule="evenodd" d="M8.81987 9.5121C7.88895 10.2998 6.69547 10.7653 5.38263 10.7653C2.42278 10.7653 0 8.35442 0 5.38263C0 2.42278 2.42278 0 5.38263 0C8.35442 0 10.7653 2.41084 10.7653 5.38263C10.7653 6.68353 10.2879 7.88895 9.5121 8.81987L13.6893 12.9971C13.8802 13.188 13.8802 13.4983 13.6893 13.6893C13.5938 13.7848 13.4745 13.8325 13.3432 13.8325C13.2119 13.8325 13.0926 13.7848 12.9971 13.6893L8.81987 9.5121ZM9.78659 5.38261C9.78659 2.95984 7.81734 0.978653 5.38261 0.978653C2.95984 0.978653 0.978653 2.95984 0.978653 5.38261C0.978653 7.8054 2.94791 9.78659 5.38261 9.78659C7.81734 9.78659 9.78659 7.81734 9.78659 5.38261Z" transform="translate(0.675003 1.05968)" fill="#979797" stroke="#979797"/>
</svg>
