<svg width="40" height="41" viewBox="0 0 40 41" fill="none" xmlns="http://www.w3.org/2000/svg">
<path fill-rule="evenodd" clip-rule="evenodd" d="M0 20C0 8.95431 8.95431 0 20 0C31.0457 0 40 8.95431 40 20C40 31.0457 31.0457 40 20 40C8.95431 40 0 31.0457 0 20Z" transform="translate(0 0.253372)" fill="#EBAD45"/>
<path fill-rule="evenodd" clip-rule="evenodd" d="M20.4084 2.60529C20.582 2.60529 20.6689 2.69215 20.7557 2.77898C20.8426 2.86581 20.8426 3.03952 20.8426 3.03952L19.1057 9.98705C19.1057 10.1607 18.932 10.3344 18.7583 10.3344L6.07907 12.0713C6.42647 12.6792 7.1212 13.0266 7.81596 13.0266H17.7162C17.9767 13.0266 18.1504 13.2003 18.1504 13.4608C18.1504 13.7213 17.9767 13.895 17.7162 13.895H7.72913C6.33965 13.895 5.03697 12.8529 4.77644 11.4634L2.69218 0.868423H0.434235C0.173706 0.868423 0 0.694717 0 0.434189C0 0.17366 0.173706 -4.57764e-05 0.434189 0H3.03952C3.21321 0 3.47374 0.17366 3.47374 0.347366L3.90797 2.60529H20.4084ZM5.64482 11.2028L18.3241 9.55281L19.8004 3.38687H4.08163L5.64482 11.2028Z" transform="translate(9.30101 12.3762)" fill="white"/>
<path fill-rule="evenodd" clip-rule="evenodd" d="M0 2.17108C0 0.955292 0.955292 0 2.17108 0C3.38692 0 4.34221 0.955292 4.34218 2.17108C4.34218 3.38687 3.38692 4.34218 2.17108 4.34218C0.955292 4.34218 0 3.38692 0 2.17108ZM0.868423 2.17108C0.868423 2.86581 1.47632 3.47374 2.17108 3.47374C2.86584 3.47374 3.47374 2.86581 3.47374 2.17108C3.47374 1.47636 2.86584 0.868423 2.17108 0.868423C1.47632 0.868423 0.868423 1.47636 0.868423 2.17108Z" transform="translate(14.5117 27.1397)" fill="white"/>
<path fill-rule="evenodd" clip-rule="evenodd" d="M0 2.17108C0 0.955292 0.955261 0 2.17108 0C3.38687 0 4.34218 0.955292 4.34218 2.17108C4.34218 3.38687 3.38692 4.34218 2.17108 4.34218C0.955292 4.34218 0 3.38692 0 2.17108ZM0.868423 2.17108C0.868423 2.86581 1.47632 3.47374 2.17108 3.47374C2.86581 3.47374 3.47374 2.86581 3.47374 2.17108C3.47374 1.47636 2.86584 0.868423 2.17108 0.868423C1.47632 0.868423 0.868423 1.47636 0.868423 2.17108Z" transform="translate(23.1961 27.1397)" fill="white"/>
<path fill-rule="evenodd" clip-rule="evenodd" d="M1.77708 2.46712H0V1.80544H1.77708V0H2.48602V1.80544H4.29146V2.46712H2.48602V4.29146H1.77708V2.46712Z" transform="translate(18.9046 17.178)" fill="white"/>
</svg>
