<svg width="36" height="28" viewBox="0 0 36 28" fill="none" xmlns="http://www.w3.org/2000/svg">
<path fill-rule="evenodd" clip-rule="evenodd" d="M35.6901 14.2748C35.7811 14.3292 35.8573 14.4058 35.9114 14.4975C36.0896 14.7999 35.9906 15.1907 35.6901 15.3702L24.2057 21.9172C24.1111 21.9712 24.0043 21.9997 23.8956 22C23.7771 22.0004 23.661 21.9673 23.5603 21.9045L0.294189 7.37111C0.196655 7.30885 0.117798 7.22096 0.0664062 7.11684C-0.0892334 6.8019 0.038208 6.41962 0.351074 6.26295L11.8607 0.0853214C12.0565 -0.0284405 12.2977 -0.0284405 12.4935 0.0853214L35.728 14.2748H35.6901ZM1.91394 6.86798L23.9336 20.6435L34.1271 14.8034L12.1455 1.35906L1.91394 6.86798Z" fill="#EBAD45"/>
<path d="M35.9155 8.41476C35.7408 8.1051 35.3528 7.99836 35.0489 8.17631H35.0868L23.9346 14.6209L0.978695 0.101292C0.681704 -0.0909168 0.288087 -0.00149867 0.0994237 0.301073C-0.08924 0.603645 -0.00147104 1.00466 0.29552 1.19687L23.5551 15.9033C23.6557 15.9669 23.7719 16.0004 23.8903 16C23.999 15.9997 24.1057 15.9708 24.2003 15.9162L35.6814 9.29766C35.9854 9.11971 36.0901 8.72442 35.9155 8.41476Z" transform="translate(0 9)" fill="#EBAD45"/>
<path d="M35.8612 8.38513C35.6954 8.17448 35.4179 8.09101 35.1659 8.17617L23.9569 14.6155L0.9809 0.10121C0.683239 -0.0908436 0.288737 -0.00149748 0.0996477 0.300831C-0.0894411 0.603159 -0.00147435 1.00385 0.296186 1.1959L23.6082 15.9034C23.709 15.9669 23.8255 16.0004 23.9442 16C24.0531 15.9997 24.16 15.9709 24.2548 15.9163L35.7618 9.29018C36.0353 9.0681 36.0799 8.66291 35.8612 8.38513Z" transform="translate(0 12)" fill="#EBAD45"/>
</svg>
