<svg width="33" height="38" viewBox="0 0 33 38" fill="none" xmlns="http://www.w3.org/2000/svg">
<path fill-rule="evenodd" clip-rule="evenodd" d="M27.1875 2.552C29.5398 3.34708 31.2548 5.38153 31.6627 7.86093L33 16H0L1.3385 7.86093C1.74646 5.38153 3.46143 3.34708 5.81372 2.552L11.0369 0.787079V0H12.251V1.01291C12.5873 1.38953 13.7814 2.46155 16.5002 2.46155C19.2192 2.46155 20.4133 1.38953 20.7496 1.01291V0H21.9637V0.787079L27.1875 2.552ZM1.62866 13.5815L1.43384 14.7692H5.81616C5.75732 14.5754 5.70508 14.3514 5.66382 14.0929L1.62866 13.5815ZM5.57825 12.8425L1.82849 12.3674L2.53577 8.064C2.86963 6.03506 4.27246 4.37045 6.19751 3.72L6.23938 3.70584L6.7699 9.08307C6.44934 9.62338 5.6062 11.2025 5.57825 12.8425ZM7.11707 14.7692H25.8835C26.0153 14.5022 26.2131 13.9372 26.2131 12.9231C26.2131 11.2819 25.1125 9.58893 25.1005 9.5723L24.9802 9.38892L25.58 3.30707L21.5474 1.944C20.9482 2.55322 19.436 3.69232 16.5004 3.69232C13.5646 3.69232 12.0525 2.55322 11.4532 1.944L7.42004 3.30707L8.01978 9.38831L7.90015 9.57169C7.88867 9.58893 6.78748 11.2917 6.78748 12.9231C6.78748 13.9372 6.98535 14.5022 7.11707 14.7692ZM26.7612 3.70584L26.8032 3.72C28.7281 4.37045 30.131 6.03506 30.465 8.064L31.1721 12.3674L27.4224 12.8425C27.395 11.2031 26.5519 9.62338 26.2307 9.08307L26.7612 3.70584ZM27.3374 14.0929C27.2955 14.3514 27.2439 14.5754 27.1851 14.7692H31.5668L31.3726 13.5815L27.3374 14.0929Z" transform="translate(0 22)" fill="#EBAD45"/>
<path fill-rule="evenodd" clip-rule="evenodd" d="M4.46069 19.6656C3.64038 18.8401 3.05859 17.8399 2.74353 16.749C1.20447 16.5737 0 15.2708 0 13.6757C0 12.6954 0.466309 11.7754 1.23535 11.1923V5.78854C1.23535 2.59714 3.8158 0 6.98682 0H14.0132C17.1842 0 19.7646 2.59714 19.7646 5.78854V11.1923C20.5337 11.7754 21 12.6954 21 13.6757C21 15.2708 19.7955 16.5737 18.2565 16.749C17.9408 17.8393 17.3596 18.8401 16.5393 19.6656L14.1311 22.0899C13.5481 22.6768 12.7723 23 11.9471 23H9.05286C8.22766 23 7.4519 22.6768 6.8689 22.0899L4.46069 19.6656ZM15.666 18.7867C16.7155 17.7299 17.2942 16.325 17.2942 14.8307V12.8825C16.9167 12.9826 16.5079 13.0541 16.0588 13.0541C15.1281 13.0541 14.4808 12.7868 13.7958 12.5039C12.9713 12.1627 12.1183 11.8108 10.5 11.8108C8.88184 11.8108 8.02881 12.1627 7.20435 12.5039C6.51929 12.7868 5.87207 13.0541 4.94128 13.0541C4.49219 13.0541 4.08337 12.9826 3.70593 12.8825V14.8307C3.70593 16.325 4.28467 17.7299 5.33411 18.7867L7.74231 21.211C8.0918 21.5628 8.5575 21.7568 9.05286 21.7568H11.9471C12.4425 21.7568 12.9076 21.5628 13.2578 21.211L15.666 18.7867ZM16.0588 11.8108C15.3723 11.8108 14.8839 11.609 14.2661 11.3537L14.2651 11.3533L14.2638 11.3528C13.416 11.0029 12.3612 10.5676 10.5 10.5676C8.63879 10.5676 7.58398 11.0029 6.73621 11.3528L6.73486 11.3533C6.11658 11.6088 5.62793 11.8108 4.94116 11.8108C3.93127 11.8108 3.12585 11.3713 2.67749 11.058C3.36499 10.1523 5.48279 8.08109 10.5 8.08109C15.5239 8.08109 17.6412 10.1585 18.3243 11.0599C17.8802 11.3732 17.0792 11.8108 16.0588 11.8108ZM18.5004 15.4349C19.2323 15.1862 19.7646 14.4956 19.7646 13.6757C19.7646 13.0559 19.4467 12.484 18.9395 12.139C18.8179 12.2205 18.682 12.305 18.5294 12.3896V14.8307C18.5294 15.0339 18.5177 15.2353 18.5004 15.4349ZM2.47058 5.78854C2.47058 3.28217 4.49646 1.24326 6.98682 1.24326H14.0126C16.5035 1.24326 18.5294 3.28217 18.5294 5.78854V9.46545C17.2664 8.29306 14.8322 6.83786 10.5 6.83786C6.16785 6.83786 3.73364 8.29306 2.47058 9.46545V5.78854ZM2.4707 12.3889C2.31812 12.3044 2.18225 12.2205 2.06055 12.1384C1.55408 12.484 1.23535 13.0559 1.23535 13.6757C1.23535 14.4956 1.76782 15.1862 2.49963 15.4348C2.48242 15.2347 2.4707 15.0333 2.4707 14.83V12.3889Z" transform="translate(6)" fill="#EBAD45"/>
<path d="M13.3363 4.26253C13.2481 5.16286 12.4453 5.84202 11.4687 5.84202H3.53195C2.55533 5.84202 1.75191 5.16286 1.66375 4.26253L1.24547 0L0 0.104797L0.418282 4.36791C0.565837 5.86807 1.90446 7 3.53195 7H11.4681C13.0962 7 14.4342 5.86807 14.5817 4.36733L15 0.104797L13.7545 0L13.3363 4.26253Z" transform="translate(9 26)" fill="#EBAD45"/>
</svg>
