<svg width="36" height="33" viewBox="0 0 36 33" fill="none" xmlns="http://www.w3.org/2000/svg">
<path d="M7.23846 0H0.761538C0.338462 0 0 0.222222 0 0.5C0 0.777778 0.338462 1 0.761538 1H7.23846C7.66154 1 8 0.777778 8 0.5C8 0.222222 7.66154 0 7.23846 0Z" transform="translate(14 7)" fill="#EBAD45"/>
<path fill-rule="evenodd" clip-rule="evenodd" d="M28.3298 31.5389C27.9257 31.5389 27.6024 31.8636 27.6024 32.2695C27.6024 32.6753 27.9257 33 28.3298 33H30.6367C31.0408 33 31.3641 32.6753 31.3641 32.2695V22.1525H33.0024C33.4065 22.1525 33.7297 21.8278 33.7297 21.422V18.7285H35.2727C35.6768 18.7285 36 18.4038 36 17.998C36 17.5921 35.6768 17.2675 35.2727 17.2675H28.9396L28.1682 12.9801C27.9845 11.9691 27.1102 11.2386 26.0963 11.2386H25.2441L24.7518 2.90005C24.6564 1.27661 23.3119 0 21.6881 0H14.3192C12.6956 0 11.3511 1.26923 11.2555 2.90005L10.7633 11.2386H9.91101C8.88977 11.2386 8.0155 11.9691 7.83923 12.9801L7.06775 17.2675H0.727295C0.323242 17.2675 0 17.5921 0 17.998C0 18.4038 0.323242 18.7285 0.727295 18.7285H2.27026V21.422C2.27026 21.8278 2.59351 22.1525 2.99756 22.1525H4.57715V32.2695C4.57715 32.6753 4.90039 33 5.30444 33H7.61145C8.0155 33 8.33875 32.6753 8.33875 32.2695C8.33875 31.8636 8.0155 31.5389 7.61145 31.5389H6.03186V22.1525H29.9094V31.5389H28.3298ZM26.089 12.6997C26.4049 12.6997 26.6768 12.9284 26.7356 13.2384L27.4629 17.2674H25.6041L25.3323 12.6997H26.089ZM14.3191 1.46848C13.4669 1.46848 12.7616 2.1326 12.7102 2.98859L11.8579 17.2675H24.142L23.2898 2.98859C23.2383 2.13998 22.533 1.46848 21.6808 1.46848H14.3191ZM9.2644 13.2384C9.32324 12.9284 9.58765 12.6997 9.91101 12.6997H10.675L10.4032 17.2674H8.54443L9.2644 13.2384ZM3.72485 18.7285V20.6914H32.275V18.7285H28.3297H7.67017H3.72485Z" fill="#EBAD45"/>
<path d="M15 0.778914C15 0.346184 14.6827 0 14.2861 0H0.713942C0.317308 0 0 0.346184 0 0.778914C0 1.21164 0.317308 1.55783 0.713942 1.55783H6.78606V4.53186H3.86538C3.46875 4.53186 3.15144 4.87805 3.15144 5.31078V9.22109C3.15144 9.65382 3.46875 10 3.86538 10C4.26202 10 4.57933 9.65382 4.57933 9.22109V6.08969H6.78606V9.22109C6.78606 9.65382 7.10337 10 7.5 10C7.89663 10 8.21394 9.65382 8.21394 9.22109V6.08969H10.4207V9.22109C10.4207 9.65382 10.738 10 11.1346 10C11.5312 10 11.8486 9.65382 11.8486 9.22109V5.31078C11.8486 4.87805 11.5312 4.53186 11.1346 4.53186H8.21394V1.55783H14.2861C14.6827 1.55783 15 1.21164 15 0.778914Z" transform="translate(10 23)" fill="#EBAD45"/>
</svg>
