<svg width="41" height="22" viewBox="0 0 41 22" fill="none" xmlns="http://www.w3.org/2000/svg">
<path fill-rule="evenodd" clip-rule="evenodd" d="M38.6472 0H10.9366C10.7443 0 10.5839 0.163147 10.5839 0.358887V5.25287H4.65051C4.45801 5.25287 4.29773 5.41599 4.29773 5.61176C4.29773 5.8075 4.45801 5.97064 4.65051 5.97064H10.5839V9.49429H0.352783C0.1604 9.49429 0 9.65741 0 9.85318C0 10.049 0.1604 10.2121 0.352783 10.2121H10.5839V14.0294H7.12012C6.92761 14.0294 6.76721 14.1925 6.76721 14.3882C6.76721 14.584 6.92761 14.7471 7.12012 14.7471H10.5839V19.6411C10.5839 19.8369 10.7443 20 10.9366 20H38.6472C38.8396 20 39 19.8369 39 19.6411V0.39151C39 0.163147 38.8396 0 38.6472 0ZM11.2894 19.2496V14.3557V9.85318V5.61176V3.06689C11.546 3.49103 11.8347 3.88257 12.1554 4.24146C13.1176 5.22025 14.4646 5.84015 15.9399 5.84015H33.6118C35.0872 5.84015 36.4342 5.22025 37.3964 4.24146C37.7491 3.88257 38.0378 3.49103 38.2623 3.06689V19.2496H11.2894ZM33.6439 5.12234C34.9268 5.12234 36.1135 4.56769 36.9474 3.71939C37.717 2.93637 38.1981 1.89233 38.2944 0.717773H11.3215C11.3856 1.89233 11.8988 2.93637 12.6686 3.71939C13.5345 4.60031 14.6891 5.12234 15.972 5.12234H33.6439Z" transform="translate(1 1)" fill="#EBAD45" stroke="#EBAD45" stroke-width="0.5"/>
<path fill-rule="evenodd" clip-rule="evenodd" d="M1.5 0C1.90625 0 2.28125 0.1875 2.5625 0.4375C2.84375 0.71875 3 1.09375 3 1.5C3 1.90625 2.84375 2.28125 2.5625 2.5625C2.28125 2.84375 1.90625 3 1.5 3C1.09375 3 0.71875 2.84375 0.4375 2.5625C0.15625 2.28125 0 1.90625 0 1.5C0 1.09375 0.15625 0.71875 0.4375 0.4375C0.71875 0.15625 1.09375 0 1.5 0ZM1.5 2.3125C1.71875 2.3125 1.90625 2.21875 2.0625 2.0625C2.21875 1.9375 2.3125 1.71875 2.3125 1.5C2.3125 1.28125 2.21875 1.09375 2.0625 0.9375C1.9375 0.78125 1.71875 0.6875 1.5 0.6875C1.28125 0.6875 1.09375 0.78125 0.9375 0.9375C0.78125 1.0625 0.6875 1.28125 0.6875 1.5C0.6875 1.71875 0.78125 1.90625 0.9375 2.0625C1.0625 2.21875 1.28125 2.3125 1.5 2.3125Z" transform="translate(25 8)" fill="#EBAD45" stroke="#EBAD45" stroke-width="0.5"/>
<path fill-rule="evenodd" clip-rule="evenodd" d="M1.5 0C1.90625 0 2.28125 0.15625 2.5625 0.4375C2.84375 0.71875 3 1.09375 3 1.5C3 1.90625 2.84375 2.28125 2.5625 2.5625C2.28125 2.84375 1.90625 3 1.5 3C1.09375 3 0.71875 2.84375 0.4375 2.59375C0.15625 2.3125 0 1.9375 0 1.53125C0 1.125 0.15625 0.75 0.4375 0.46875C0.71875 0.1875 1.09375 0 1.5 0ZM1.5 2.3125C1.71875 2.3125 1.90625 2.21875 2.0625 2.0625C2.21875 1.9375 2.3125 1.71875 2.3125 1.5C2.3125 1.28125 2.21875 1.09375 2.0625 0.9375C1.9375 0.78125 1.71875 0.6875 1.5 0.6875C1.28125 0.6875 1.09375 0.78125 0.9375 0.9375C0.78125 1.09375 0.6875 1.28125 0.6875 1.5C0.6875 1.71875 0.78125 1.90625 0.9375 2.0625C1.0625 2.21875 1.28125 2.3125 1.5 2.3125Z" transform="translate(25 3)" fill="#EBAD45" stroke="#EBAD45" stroke-width="0.5"/>
</svg>
