<svg width="32" height="32" viewBox="0 0 32 32" fill="none" xmlns="http://www.w3.org/2000/svg">
<path fill-rule="evenodd" clip-rule="evenodd" d="M7 3.5C7 5.4295 5.43005 7 3.5 7C1.56995 7 0 5.4295 0 3.5C0 1.5705 1.56995 0 3.5 0C5.43005 0 7 1.5705 7 3.5ZM6 3.5C6 2.12149 4.87854 1 3.5 1C2.12146 1 1 2.12149 1 3.5C1 4.87851 2.12146 6 3.5 6C4.87854 6 6 4.87851 6 3.5Z" transform="translate(12 7)" fill="#EDAC3B" stroke="#EBAD45" stroke-width="0.5"/>
<path fill-rule="evenodd" clip-rule="evenodd" d="M17.1014 16.0746L9.50098 27L1.88916 16.0594C-0.950195 12.2917 -0.537964 6.07434 2.78284 2.76968C4.57739 0.983704 6.96338 0 9.50098 0C12.0386 0 14.4246 0.983704 16.219 2.77017C19.5399 6.07483 19.9521 12.2922 17.1014 16.0746ZM9.50098 0.986176C7.22791 0.986176 5.09119 1.86731 3.4834 3.46689C0.486572 6.44958 0.116943 12.0649 2.69324 15.4829L9.50098 25.2673L16.2979 15.4977C18.885 12.0649 18.5159 6.44958 15.5186 3.46689C13.9109 1.86731 11.774 0.986176 9.50098 0.986176Z" transform="translate(6 1)" fill="#EDAC3B" stroke="#EBAD45" stroke-width="0.5"/>
<path d="M21.0585 0.00413528C20.7835 -0.0313336 20.5355 0.177245 20.5035 0.467878C20.4715 0.758511 20.6675 1.02162 20.9415 1.0555C26.1995 1.71088 29 3.47691 29 4.50021C29 5.93697 23.674 7.94123 15 7.94123C6.326 7.94123 1 5.93697 1 4.50021C1 3.47691 3.8005 1.71088 9.0585 1.0555C9.3325 1.02162 9.5285 0.757982 9.4965 0.467878C9.464 0.177245 9.216 -0.0323924 8.9415 0.00413528C3.677 0.660575 0 2.50919 0 4.50021C0 6.73634 5.1525 9 15 9C24.8475 9 30 6.73634 30 4.50021C30 2.50919 26.323 0.660575 21.0585 0.00413528Z" transform="translate(1 22)" fill="#EDAC3B" stroke="#EBAD45" stroke-width="0.5"/>
</svg>
