<svg width="31" height="29" viewBox="0 0 31 29" fill="none" xmlns="http://www.w3.org/2000/svg">
<path fill-rule="evenodd" clip-rule="evenodd" d="M24.5189 1.86301L25.8432 3.03196L9.1189 12.3105L1.02161 7.78082L1.77836 6.31964L9.1189 10.3744L24.5189 1.86301ZM21.1514 0L22.9298 0.876712L9.11896 8.54795L2.68652 5.00457L3.78382 3.72603L9.11896 6.68493L21.1514 0ZM27.0162 4.23744L28 5.51598L9.11892 16L0 10.9589L0.416216 9.3516L9.11892 14.1735L27.0162 4.23744Z" fill="#26B44E"/>
<path fill-rule="evenodd" clip-rule="evenodd" d="M30.1632 2.074C30.7208 3.60506 31 5.20945 31 6.88866C31 8.56786 30.7208 10.1974 30.1632 11.7774L29.7828 12.7781C28.997 14.5802 27.8939 16.1854 26.4736 17.5927C25.0282 18.9749 23.3805 20.0371 21.5288 20.7778C19.5768 21.5926 17.5608 22 15.481 22C13.376 22 11.3601 21.5919 9.43313 20.7778C7.63247 20.0371 5.99688 18.9749 4.52638 17.5927C3.08098 16.1854 1.97791 14.5802 1.21718 12.7781C0.405472 10.8759 0 8.91303 0 6.88866V5.88869L9.43313 11.1107L29.3264 0L30.1632 2.074Z" transform="translate(0 7)" fill="#26B44E"/>
</svg>
