<svg width="42" height="13" viewBox="0 0 42 13" fill="none" xmlns="http://www.w3.org/2000/svg">
<path d="M2.30755 0L0 12H3.69056L6 0H2.30755Z" transform="translate(15 1)" fill="#EBAD45"/>
<path d="M8.39711 0.00252703L5.06626 8.19767L4.71113 6.96027C4.05423 5.46932 2.18937 3.32809 0 1.97866L3.0457 12L6.64422 11.9941L12 0L8.39711 0.00252703Z" transform="translate(3 1)" fill="#EBAD45"/>
<path d="M6.84532 1.08739C6.64626 0.272082 6.06936 0.0290846 5.3533 0H0.0440383L0 0.266452C4.13167 1.33414 6.86557 3.90671 8 7L6.84532 1.08739Z" transform="translate(0 1)" fill="#EBAD45"/>
<path d="M6.75409 2.6309C7.84435 2.61324 8.63461 2.85868 9.24831 3.11294L9.54916 3.25861L10 0.528829C9.34002 0.273684 8.30548 0 7.01466 0C3.72161 0 1.40053 1.70832 1.38253 4.15647C1.3611 5.96543 3.03591 6.97542 4.30102 7.5784C5.59955 8.1964 6.03497 8.58927 6.02897 9.14105C6.01869 9.98418 4.99357 10.3709 4.03617 10.3709C2.70164 10.3709 1.9928 10.1811 0.89826 9.71138L0.468844 9.51009L0 12.329C0.779978 12.6813 2.21908 12.9841 3.71304 13C7.21608 13 9.49259 11.312 9.51659 8.6961C9.53116 7.26499 8.64232 6.1729 6.71638 5.27681C5.5507 4.69236 4.83758 4.30391 4.84443 3.71416C4.84443 3.19063 5.44956 2.6309 6.75409 2.6309Z" transform="translate(20)" fill="#EBAD45"/>
<path fill-rule="evenodd" clip-rule="evenodd" d="M6.7135 0H9.29565L12 12H8.89941C8.89941 12 8.59167 10.6206 8.49194 10.2014C8.23499 10.2014 7.15894 10.2 6.14575 10.1987C5.24451 10.1975 4.39294 10.1964 4.21204 10.1964C4.08228 10.5204 3.50977 12 3.50977 12H0L4.96252 0.99649C5.31494 0.213776 5.9115 0 6.7135 0ZM6.50549 4.38322C6.50549 4.38322 5.44897 7.04952 5.17395 7.73882H7.95044L7.1759 4.27213L6.95068 3.23692C6.86609 3.45816 6.7533 3.74535 6.66235 3.97705C6.5675 4.21868 6.49622 4.39999 6.50549 4.38322Z" transform="translate(30 1)" fill="#EBAD45"/>
</svg>
