<svg width="24" height="23" viewBox="0 0 24 23" fill="none" xmlns="http://www.w3.org/2000/svg">
<path d="M0 0H3V3H0V0Z" transform="translate(17 12)" fill="#EBAD45"/>
<path d="M0 0H4V4H0V0Z" transform="translate(13 14)" fill="#EBAD45"/>
<path d="M0 0H2V2H0V0Z" transform="translate(22 11)" fill="#EBAD45"/>
<path d="M0 0H3V3H0V0Z" transform="translate(14 3)" fill="#EBAD45"/>
<path d="M0 0H2V2H0V0Z" transform="translate(20 7)" fill="#EBAD45"/>
<path d="M0 0H4V4H0V0Z" transform="translate(11 9)" fill="#EBAD45"/>
<path d="M0 0H4V4H0V0Z" transform="translate(9 4)" fill="#EBAD45"/>
<path d="M0 0H3V3H0V0Z" transform="translate(15 7)" fill="#EBAD45"/>
<path d="M0 0H2V2H0V0Z" transform="translate(18 3)" fill="#EBAD45"/>
<path d="M0 0H3V3H0V0Z" transform="translate(19 16)" fill="#EBAD45"/>
<path d="M16.6475 17.8519L13.9281 20.3174L9.33705 15.2936L10.6139 14.1887L7.39948 10.6499L8.68348 9.54321L5.42094 6.00784L10.5124 1.50065L12.1294 3.24119L14.8595 0.845756L16.473 2.48999L17.5486 1.54267C17.3082 1.40609 17.0678 1.28002 16.8238 1.1662C15.2727 0.420251 13.531 0 11.6967 0C5.25532 0 0 5.16559 0 11.5009C0 17.8344 5.25532 23 11.6967 23C13.7892 23 15.7606 22.4554 17.4613 21.5011C18.0223 21.1894 18.5334 20.8515 19 20.496L16.6475 17.8519Z" fill="#EBAD45"/>
</svg>
