<svg width="27" height="26" viewBox="0 0 27 26" fill="none" xmlns="http://www.w3.org/2000/svg">
<path fill-rule="evenodd" clip-rule="evenodd" d="M24.9966 8.81175C26.0657 8.82345 26.8049 9.34981 26.957 10.2271C26.999 10.4751 27.0038 10.7324 26.9967 10.978C27.0015 14.9152 27.0015 18.8408 26.9944 22.771L26.9945 22.8749C26.9962 23.5817 26.9979 24.2838 26.3043 24.8413C25.7428 25.3045 25.0527 25.4589 24.3041 25.4589C21.7166 25.466 19.1355 25.4651 16.5511 25.4642C15.6893 25.4639 14.827 25.4636 13.964 25.4636C13.0986 25.4636 12.2327 25.4639 11.3665 25.4642C8.76697 25.4651 6.16516 25.466 3.56995 25.4589C1.83411 25.4589 0.577881 24.6729 0.0936279 23.302C0.0305176 23.1102 0.00939941 22.9043 0.00939941 22.7031C0.00769043 21.2234 0.00817871 19.7439 0.00866699 18.2643C0.00952148 15.7136 0.010376 13.1624 0 10.6084C-0.00695801 9.18606 0.800171 8.18713 2.24817 7.49701C7.17029 5.15527 12.0854 2.81353 17.0028 0.467106C17.8076 0.0834446 18.6217 -0.180908 19.5481 0.151287C20.3528 0.443712 20.7037 1.00751 20.7037 1.6836C20.7065 2.32683 20.7098 2.96996 20.7131 3.61301C20.7317 7.24041 20.7502 10.8649 20.6827 14.4895C20.657 15.8066 19.8124 16.8499 18.2474 17.3786C16.1536 18.0803 14.0555 18.7744 11.9573 19.4685C10.5789 19.9244 9.20032 20.3804 7.823 20.8386C7.60596 20.9106 7.38879 20.9819 7.17151 21.0533C6.51965 21.2673 5.8678 21.4814 5.22388 21.7112C4.94556 21.8071 4.67419 21.9452 4.4613 22.1183C4.2998 22.261 4.09399 22.5394 4.15955 22.654C4.26013 22.8271 4.58289 23.0049 4.81689 23.0049C5.35254 23.0096 5.90698 22.9511 6.43335 22.8365C9.31311 22.2107 12.1895 21.5753 15.0656 20.9399C16.8668 20.5419 18.668 20.144 20.4698 19.7485C21.9764 19.4139 23.2303 18.0945 23.2373 16.8102C23.2467 14.3608 23.256 11.9068 23.2256 9.45041C23.2209 8.94978 23.3871 8.73923 24.0187 8.80473C24.225 8.82731 24.4341 8.8218 24.6449 8.81625C24.7617 8.81317 24.879 8.81008 24.9966 8.81175ZM14.8389 7.34963C13.6785 7.49467 12.9182 8.0608 12.5696 8.96615C12.1882 9.95104 12.8013 10.7207 13.9008 10.7207C15.2178 10.7254 16.5513 9.4855 16.3851 8.41873C16.2753 7.72627 15.6062 7.25137 14.8389 7.34963Z" transform="translate(0 0.420387)" fill="#EBAD45"/>
</svg>
