<svg width="30" height="30" fill="none" xmlns="http://www.w3.org/2000/svg"><path fill-rule="evenodd" clip-rule="evenodd" d="M0 15C0 6.71 6.709 0 15 0c8.29 0 15 6.709 15 15 0 8.29-6.709 15-15 15-8.29 0-15-6.709-15-15zm2.344 0c0 6.995 5.66 12.656 12.656 12.656 6.995 0 12.656-5.66 12.656-12.656 0-6.995-5.66-12.656-12.656-12.656C8.005 2.344 2.344 8.004 2.344 15z" fill="#EBAD45"/><path d="M15 8c-.552 0-1 .53-1 1.185v7.63c0 .655.448 1.185 1 1.185s1-.53 1-1.185v-7.63C16 8.53 15.552 8 15 8zm0 14a1 1 0 1 0 0-2 1 1 0 0 0 0 2z" fill="#EBAD45"/></svg>