<svg width="14" height="20" fill="none" xmlns="http://www.w3.org/2000/svg"><path fill-rule="evenodd" clip-rule="evenodd" d="M10.594 1.772V.386c0-.213-.191-.386-.427-.386H3.833c-.236 0-.427.173-.427.386v1.868H.426c-.235 0-.426.172-.426.385v.975C0 3.827.19 4 .426 4h13.148c.235 0 .426-.173.426-.386V2.64c0-.213-.19-.385-.426-.385h-2.98v-.482zM1.438 20A.444.444 0 0 1 1 19.55V5h12v14.55c0 .249-.196.45-.438.45H1.438zm9.67-12.524H9.465v9.791h1.643v-9.79zm-4.93 0h1.644v9.791H6.178v-9.79zm-1.643 0H2.892v9.791h1.643v-9.79zM5 2h3.99V1H5v1z" fill="#fff"/></svg>