<svg width="12" height="16" fill="none" xmlns="http://www.w3.org/2000/svg"><path fill-rule="evenodd" clip-rule="evenodd" d="M10.665 3.7c.067.147.137.303.177.452l.01.029c.046.135.232.676.232.842v.7c0 1.235-.796 2.485-1.59 3.734-.3.471-.599.942-.856 1.412a1.78 1.78 0 0 1-.198.27c-.074.09-.149.18-.201.271-.064.113-.133.227-.202.343-.101.17-.204.342-.298.515-.314.536-.632 1.083-.951 1.634l-.815 1.401-.418-.674C4.73 13.296 3.902 11.96 3.1 10.605a45.033 45.033 0 0 0-.56-.917c-.747-1.2-1.515-2.434-1.662-3.61a6.234 6.234 0 0 1-.022-.382v-.634c.33-3.1 2.8-4.605 5.045-4.605 1.676 0 3.751.818 4.701 3.101l.063.142zM4.204 6.092c.356.91 1.078 1.24 1.738 1.24 1.055 0 1.929-.844 1.929-1.9s-.817-1.9-1.872-1.9c-.858 0-1.844.528-1.844 1.689v.414c0 .05-.002.319.049.457z" fill="#242A7E"/></svg>