<svg width="15" height="16" fill="none" xmlns="http://www.w3.org/2000/svg"><path d="M14.751 12.341a.701.701 0 0 1-.215.614l-2.042 2.027a1.15 1.15 0 0 1-.36.26 1.491 1.491 0 0 1-.438.139 2.088 2.088 0 0 1-.292.015 7.07 7.07 0 0 1-.944-.1c-.435-.066-.967-.23-1.597-.49-.63-.262-1.343-.653-2.141-1.175-.799-.522-1.648-1.239-2.549-2.15a16.823 16.823 0 0 1-1.78-2.026 14.44 14.44 0 0 1-1.137-1.789 9.633 9.633 0 0 1-.645-1.49 7.901 7.901 0 0 1-.291-1.15 3.803 3.803 0 0 1-.062-.76c.01-.185.015-.287.015-.308.02-.143.067-.289.139-.437a1.15 1.15 0 0 1 .26-.36l2.043-2.043a.676.676 0 0 1 .49-.215c.134 0 .252.039.354.115.102.077.19.172.261.284L5.463 4.42a.747.747 0 0 1 .076.537.957.957 0 0 1-.26.492l-.753.752a.256.256 0 0 0-.054.1.379.379 0 0 0-.023.115c.041.215.134.46.277.737.123.245.312.545.568.898.256.353.62.76 1.09 1.22.46.471.87.837 1.228 1.098.358.261.658.453.898.576.24.123.425.197.553.222l.192.039c.02 0 .054-.008.1-.023a.257.257 0 0 0 .1-.054l.875-.89a.94.94 0 0 1 .644-.246c.174 0 .313.03.415.092h.015l2.963 1.75c.215.133.343.302.384.507z" fill="#252B7F"/></svg>