<svg width="32" height="33" fill="none" xmlns="http://www.w3.org/2000/svg"><path fill-rule="evenodd" clip-rule="evenodd" d="M16 31.619c8.284 0 15-6.77 15-15.122S24.284 1.375 16 1.375c-8.284 0-15 6.77-15 15.122s6.716 15.122 15 15.122z" fill="#fff" stroke="#EBAD45"/><path fill-rule="evenodd" clip-rule="evenodd" d="M23.187 11.899c.133 0 .199.067.265.133.067.067.067.2.067.2l-1.326 5.346c0 .133-.132.267-.265.267l-9.675 1.336c.265.468.795.735 1.325.735h7.555c.199 0 .331.134.331.334s-.132.334-.331.334h-7.621c-1.06 0-2.055-.802-2.253-1.87l-1.591-8.151H7.945c-.199 0-.331-.134-.331-.334s.132-.334.331-.334h1.988c.133 0 .331.133.331.267l.332 1.737h12.591zm-11.266 6.614l9.676-1.27 1.126-4.743H10.728l1.193 6.013zm-.331 4.409c0-.935.729-1.67 1.657-1.67.927 0 1.656.735 1.656 1.67 0 .936-.729 1.67-1.656 1.67a1.647 1.647 0 0 1-1.657-1.67zm.663 0c0 .535.463 1.003.994 1.003.53 0 .994-.468.994-1.003 0-.534-.464-1.002-.994-1.002s-.994.468-.994 1.002zm5.964 0c0-.935.729-1.67 1.657-1.67.927 0 1.656.735 1.656 1.67 0 .936-.729 1.67-1.656 1.67a1.647 1.647 0 0 1-1.657-1.67zm.663 0c0 .535.463 1.003.994 1.003.53 0 .994-.468.994-1.003 0-.534-.464-1.002-.994-1.002s-.994.468-.994 1.002z" fill="#333"/></svg>