<svg width="30" height="30" viewBox="0 0 30 30" fill="none" xmlns="http://www.w3.org/2000/svg">
<path fill-rule="evenodd" clip-rule="evenodd" d="M0 15C0 6.70941 6.70874 0 15 0C23.2905 0 30 6.7088 30 15C30 23.2906 23.2913 30 15 30C6.70947 30 0 23.2912 0 15ZM2.34375 15C2.34375 21.9952 8.00439 27.6562 15 27.6562C21.9951 27.6562 27.6562 21.9957 27.6562 15C27.6562 8.00476 21.9956 2.34375 15 2.34375C8.00488 2.34375 2.34375 8.00433 2.34375 15Z" fill="#EBAD45"/>
<path d="M1 0C0.4477 0 0 0.530472 0 1.18488V8.81512C0 9.46953 0.4477 10 1 10C1.5523 10 2 9.46953 2 8.81512V1.18488C2 0.530472 1.5523 0 1 0Z" transform="translate(14 8)" fill="#EBAD45"/>
<path d="M1 2C1.55228 2 2 1.55228 2 1C2 0.447715 1.55228 0 1 0C0.447715 0 0 0.447715 0 1C0 1.55228 0.447715 2 1 2Z" transform="translate(14 20)" fill="#EBAD45"/>
</svg>
