<svg width="40" height="41" fill="none" xmlns="http://www.w3.org/2000/svg"><path fill-rule="evenodd" clip-rule="evenodd" d="M0 20.253c0-11.045 8.954-20 20-20s20 8.955 20 20c0 11.046-8.954 20-20 20s-20-8.954-20-20z" fill="#EBAD45"/><path fill-rule="evenodd" clip-rule="evenodd" d="M29.71 14.981c.173 0 .26.087.347.174.087.087.087.26.087.26l-1.737 6.948a.374.374 0 0 1-.348.348L15.38 24.448c.347.607 1.042.955 1.737.955h9.9c.26 0 .434.174.434.434s-.173.434-.434.434H17.03c-1.39 0-2.692-1.042-2.953-2.431l-2.084-10.595H9.735c-.26 0-.434-.174-.434-.435 0-.26.174-.434.434-.434h2.606c.173 0 .434.174.434.348l.434 2.257h16.5zM14.945 23.58l12.68-1.65 1.475-6.166H13.383l1.563 7.816zm-.433 5.73a2.15 2.15 0 0 1 2.17-2.17 2.15 2.15 0 0 1 2.172 2.17 2.15 2.15 0 0 1-2.171 2.172 2.15 2.15 0 0 1-2.171-2.171zm.868 0c0 .696.608 1.303 1.303 1.303s1.302-.607 1.302-1.302c0-.695-.607-1.303-1.302-1.303-.695 0-1.303.608-1.303 1.303zm7.816 0a2.15 2.15 0 0 1 2.171-2.17 2.15 2.15 0 0 1 2.171 2.17 2.15 2.15 0 0 1-2.17 2.172 2.15 2.15 0 0 1-2.172-2.171zm.869 0c0 .696.607 1.303 1.302 1.303.695 0 1.303-.607 1.303-1.302 0-.695-.608-1.303-1.303-1.303s-1.302.608-1.302 1.303z" fill="#fff"/><path fill-rule="evenodd" clip-rule="evenodd" d="M20.682 19.645h-1.777v-.662h1.777v-1.805h.709v1.805h1.805v.662h-1.805v1.824h-.71v-1.824z" fill="#fff"/></svg>