<svg width="42" height="38" viewBox="0 0 42 38" fill="none" xmlns="http://www.w3.org/2000/svg">
<path fill-rule="evenodd" clip-rule="evenodd" d="M39.2 0H7C5.45361 0 4.2 1.26025 4.2 2.81482V25.3333H0.699997C0.313423 25.3333 0 25.6484 0 26.037C0 27.5916 1.25361 28.8519 2.8 28.8519H23.1V37.2963C23.1001 37.6849 23.4135 37.9999 23.8002 37.9998C23.9858 37.9998 24.1637 37.9257 24.2949 37.7938L28 34.0691L31.7051 37.7938C31.8363 37.9258 32.0143 38 32.2 38C32.2921 38.0002 32.3831 37.9821 32.4681 37.9465C32.7296 37.8375 32.9001 37.5809 32.9 37.2963V28.8519H35C36.5464 28.8519 37.8 27.5916 37.8 26.037V3.51849H41.3C41.6866 3.51849 42 3.20343 42 2.81482C42 1.26025 40.7464 0 39.2 0ZM36.4 2.81482V25.3333H33.6V26.7407H36.2117C35.9617 27.176 35.4999 27.4442 35 27.4445H32.9V26.7407H31.5V35.5975L28.4949 32.5765C28.2216 32.3018 27.7785 32.3018 27.5051 32.5765L24.5 35.5975V26.7407H23.1V27.4445H2.8C2.30012 27.4442 1.83829 27.176 1.5883 26.7407H4.9H22.4V25.3333H5.60001V2.81482C5.60001 2.03748 6.22677 1.40741 7 1.40741H36.7892C36.5373 1.83344 36.4029 2.31921 36.4 2.81482ZM39.9013 1.59802C39.232 1.20862 38.3756 1.43835 37.9883 2.11108H40.4117C40.2891 1.89825 40.1131 1.72125 39.9013 1.59802Z" fill="#EBAD45"/>
<path fill-rule="evenodd" clip-rule="evenodd" d="M12.0381 6.9939L12.909 8.6012C12.9183 8.61816 12.9269 8.63556 12.9348 8.65338C13.0911 9.005 12.941 9.42065 12.5997 9.58167L10.9769 10.3485L10.7675 12.1765C10.746 12.3696 10.6475 12.545 10.4955 12.6603C10.3428 12.7762 10.1497 12.8199 9.96388 12.7808L8.21123 12.423L6.99905 13.7753C6.98708 13.7886 6.97467 13.8014 6.96175 13.8137C6.68616 14.0764 6.25606 14.0592 6.00104 13.7753L4.78886 12.423L3.0362 12.7808C3.01912 12.7843 3.00187 12.7871 2.98454 12.7892C2.61172 12.8348 2.27349 12.5605 2.22922 12.1765L2.01982 10.3471L0.397018 9.58026C0.379768 9.57214 0.362854 9.56317 0.346375 9.55365C0.0192795 9.36383 -0.09655 8.93683 0.0876846 8.59979L0.961975 6.9939L0.0876846 5.3894C0.0783386 5.37244 0.0697556 5.35498 0.0618515 5.33722C-0.094429 4.9856 0.0556488 4.56995 0.397018 4.40894L2.01982 3.64209L2.22922 1.81415C2.23125 1.79633 2.23398 1.77856 2.23737 1.76093C2.3102 1.38153 2.66789 1.13477 3.0362 1.20978L4.78886 1.56763L6.00104 0.215271L6.00876 0.207336C6.28436 -0.0722046 6.72771 -0.0686035 6.99905 0.215271L8.21123 1.56763L9.96388 1.20978C9.98096 1.2063 9.99821 1.20349 10.0155 1.20135C10.3884 1.15576 10.7266 1.43011 10.7709 1.81415L10.9803 3.64209L12.6031 4.40753C12.6203 4.41565 12.6372 4.42462 12.6537 4.43414C12.9808 4.62396 13.0966 5.05096 12.9124 5.388L12.0381 6.9939ZM11.3657 8.62146L10.6662 7.33563C10.5504 7.12292 10.5504 6.86346 10.6662 6.6507L11.3657 5.36487L10.0659 4.75067C9.85034 4.6488 9.70197 4.4386 9.67427 4.19604L9.50702 2.73022L8.10178 3.01666C7.87019 3.06628 7.63037 2.98645 7.47087 2.80652L6.50005 1.72382L5.52921 2.81006C5.36928 2.98932 5.12981 3.06909 4.89832 3.02014L3.49306 2.7337L3.32581 4.19952C3.29811 4.44208 3.14973 4.65228 2.93422 4.75421L1.63435 5.36841L2.33392 6.65424V6.65143C2.45365 6.86334 2.45084 7.12274 2.33392 7.33636L1.63435 8.62219L2.93422 9.23639C3.14973 9.33826 3.29811 9.54846 3.32581 9.79108L3.49306 11.2569L4.89832 10.9704C4.94165 10.9609 4.98584 10.9562 5.0302 10.9564C5.21971 10.9564 5.40054 11.0379 5.52921 11.1812L6.50005 12.264L7.47087 11.1798C7.63046 11 7.87019 10.9202 8.10178 10.9697L9.50702 11.2562L9.67427 9.79034C9.70197 9.54779 9.85034 9.33759 10.0659 9.23566L11.3657 8.62146Z" transform="translate(21 13)" fill="#EBAD45"/>
<path fill-rule="evenodd" clip-rule="evenodd" d="M0 3.5C0 1.56702 1.56703 0 3.5 0C5.43297 0 7 1.56702 7 3.5C7 5.43298 5.43297 7 3.5 7C1.56799 6.99762 0.00227356 5.43201 0 3.5ZM1.39999 3.5C1.39999 4.65985 2.34018 5.60004 3.5 5.60004C4.65981 5.60004 5.59999 4.65985 5.59999 3.5C5.59999 2.34021 4.65981 1.40002 3.5 1.40002C2.34018 1.40002 1.39999 2.34021 1.39999 3.5Z" transform="translate(24 17)" fill="#EBAD45"/>
<path d="M0 0H11V1H0V0Z" transform="translate(15 4)" fill="#EBAD45"/>
<path d="M0 0H25V1H0V0Z" transform="translate(8 8)" fill="#EBAD45"/>
<path d="M0 0H25V1H0V0Z" transform="translate(8 11)" fill="#EBAD45"/>
<path d="M0 0H9V1H0V0Z" transform="translate(9 20)" fill="#EBAD45"/>
</svg>
