<svg width="39" height="29" viewBox="0 0 39 29" fill="none" xmlns="http://www.w3.org/2000/svg">
<path fill-rule="evenodd" clip-rule="evenodd" d="M0 1.92065C0 0.521057 0.870178 0 2.00702 0C3.12982 0 4 0.520996 4 1.92065V4.07935C4 5.47894 3.12982 6 2.00702 6C0.870178 6 0 5.47894 0 4.07935V1.92065ZM2.00702 4.8833C2.49835 4.8833 2.80701 4.63013 2.80701 4.07922V1.92053C2.80701 1.36951 2.49823 1.11646 2.00702 1.11646C1.51581 1.11646 1.2211 1.36963 1.2211 1.92053V4.07922C1.2211 4.63013 1.51581 4.8833 2.00702 4.8833Z" transform="translate(5 12)" fill="#EBAD45"/>
<path d="M6.22222 0C5.98888 0 5.77107 0.103681 5.66226 0.310773L0.0622184 11.0973C0.0310619 11.1714 0 11.2601 0 11.3489C0 11.6597 0.295561 12 0.73109 12C0.995495 12 1.24437 11.8815 1.33774 11.6745L6.93778 0.93223C6.98447 0.843412 7 0.754684 7 0.665866C7 0.266454 6.58 0 6.22222 0Z" transform="translate(7 12)" fill="#EBAD45"/>
<path fill-rule="evenodd" clip-rule="evenodd" d="M0 1.92053C0 0.521057 0.870178 0 2.00702 0C3.12982 0 4 0.521057 4 1.92053V4.07935C4 5.49377 3.12982 6 2.00702 6C0.870178 6 0 5.49377 0 4.07935V1.92053ZM2.0069 4.88342C2.49823 4.88342 2.80695 4.63025 2.80695 4.07935V1.92053C2.80695 1.36975 2.49823 1.11664 2.0069 1.11658C1.51569 1.11658 1.22101 1.36975 1.22101 1.92053V4.07935C1.22101 4.63025 1.51569 4.88342 2.0069 4.88342Z" transform="translate(12 17)" fill="#EBAD45"/>
<path d="M3.3622 0H0.6378C0.285526 0 1.8986e-08 0.223903 1.8986e-08 0.5C-8.50096e-05 0.776097 0.285441 1 0.6378 1H3.3622C3.71447 1 4 0.776097 4 0.5C4 0.223837 3.71447 0 3.3622 0Z" transform="translate(30 13)" fill="#EBAD45"/>
<path d="M9.35304 0H0.646958C0.289626 0 0 0.223903 0 0.5C0 0.776097 0.289712 1 0.646958 1H9.35304C9.71037 1 10 0.776097 10 0.5C10 0.223837 9.71037 0 9.35304 0Z" transform="translate(19 13)" fill="#EBAD45"/>
<path d="M14.346 0H0.654005C0.292781 0 0 0.223903 0 0.5C0 0.776097 0.292868 1 0.654005 1H14.346C14.7072 1 15 0.776097 15 0.5C15 0.223837 14.7072 0 14.346 0Z" transform="translate(19 18)" fill="#EBAD45"/>
<path d="M6.32047 0H0.679535C0.30421 0 0 0.223903 0 0.5C0 0.776163 0.30421 1 0.679535 1H6.32047C6.69579 1 7 0.776097 7 0.5C7 0.223903 6.69579 0 6.32047 0Z" transform="translate(23 22)" fill="#EBAD45"/>
<path d="M2.23501 0H0.764992C0.342467 0 0 0.223903 0 0.5C0 0.776097 0.342569 1 0.764992 1H2.23501C2.65753 1 3 0.776097 3 0.5C3 0.223837 2.65743 0 2.23501 0Z" transform="translate(19 22)" fill="#EBAD45"/>
<path fill-rule="evenodd" clip-rule="evenodd" d="M2.37927 0H36.6208C37.9327 0 39 1.05676 39 2.35571V26.6444C39 27.9432 37.9327 29 36.6208 29H2.37927C1.06735 29 0 27.9433 0 26.6444V2.35571C0 1.05676 1.06735 0 2.37927 0ZM36.6207 27.6945C37.2056 27.6945 37.6814 27.2233 37.6815 26.6443V8.87415H1.31863V26.6443C1.31863 27.2233 1.79437 27.6945 2.3793 27.6945H36.6207ZM1.34445 7.5686V4.75214H37.6475V7.5686H1.34445ZM1.31863 3.44653H37.6815V2.35571C37.6815 1.77667 37.2057 1.30554 36.6208 1.30554H2.3793C1.79446 1.30554 1.31863 1.77655 1.31863 2.35571V3.44653Z" fill="#EBAD45"/>
</svg>
