<svg width="28" height="27" viewBox="0 0 28 27" fill="none" xmlns="http://www.w3.org/2000/svg">
<path fill-rule="evenodd" clip-rule="evenodd" d="M0 2.71985C0 1.19678 1.19678 0 2.71985 0C4.24304 0 5.43976 1.19678 5.43976 2.71985C5.43976 4.24292 4.24304 5.4397 2.71985 5.4397C1.19678 5.4397 0 4.24304 0 2.71985ZM1.08795 2.71985C1.08795 3.59009 1.84949 4.35181 2.71991 4.35181C3.59027 4.35181 4.35181 3.59009 4.35181 2.71985C4.35181 1.84949 3.59027 1.08789 2.71991 1.08789C1.84949 1.08789 1.08795 1.84949 1.08795 2.71985Z" transform="translate(7.2594 21.0881)" fill="white" stroke="white" stroke-width="0.4"/>
<path fill-rule="evenodd" clip-rule="evenodd" d="M0 2.71985C0 1.19678 1.19672 0 2.71985 0C4.24298 0 5.43976 1.19678 5.43976 2.71985C5.43976 4.24292 4.24304 5.4397 2.71985 5.4397C1.19678 5.4397 0 4.24304 0 2.71985ZM1.08795 2.71985C1.08795 3.59009 1.84949 4.35181 2.71991 4.35181C3.59021 4.35181 4.35181 3.59009 4.35181 2.71985C4.35181 1.84949 3.59027 1.08789 2.71991 1.08789C1.84949 1.08789 1.08795 1.84949 1.08795 2.71985Z" transform="translate(18.139 21.0881)" fill="white" stroke="white" stroke-width="0.4"/>
<path fill-rule="evenodd" clip-rule="evenodd" d="M25.567 3.26379C25.7845 3.26379 25.8933 3.37268 26.0021 3.48145C26.1109 3.59021 26.1109 3.80786 26.1109 3.80786L23.9349 12.5115C23.9349 12.729 23.7174 12.9467 23.4998 12.9467L7.61566 15.1224C8.05084 15.884 8.9212 16.3192 9.79156 16.3192H22.1942C22.5206 16.3192 22.7382 16.5369 22.7382 16.8633C22.7382 17.1896 22.5206 17.4072 22.1942 17.4072H9.6828C7.94208 17.4072 6.31018 16.1017 5.98376 14.361L3.37268 1.08789H0.544006C0.21759 1.08789 0 0.870361 0 0.543945C0 0.217529 0.21759 0 0.543945 0H3.8078C4.02539 0 4.35181 0.217529 4.35181 0.435181L4.89581 3.26379H25.567ZM7.07166 14.0345L22.9558 11.9674L24.8053 4.24292H5.11334L7.07166 14.0345Z" transform="translate(0.731689 0.592896)" fill="white" stroke="white" stroke-width="0.4"/>
<path fill-rule="evenodd" clip-rule="evenodd" d="M2.22627 3.09073H0V2.2618H2.22627V0H3.11441V2.2618H5.3762V3.09073H3.11441V5.3762H2.22627V3.09073Z" transform="translate(12.7628 6.6084)" fill="white" stroke="white" stroke-width="0.4"/>
</svg>
