<svg width="36" height="36" viewBox="0 0 36 36" fill="none" xmlns="http://www.w3.org/2000/svg">
<path fill-rule="evenodd" clip-rule="evenodd" d="M3.62061 5.2016H4.89587C5.5047 5.2016 6 5.71478 6 6.34558V9.85596C6.00006 10.4868 5.50479 11 4.89594 11H1.10413C0.4953 11 0 10.4868 0 9.85602V6.07721C0 1.28912 2.64081 0.130188 4.8562 0.00109863C5.04846 -0.0098877 5.23697 0.0612183 5.37701 0.198425C5.51703 0.335571 5.59637 0.526489 5.59637 0.726074V2.89905C5.59637 3.27466 5.32004 3.5882 4.95901 3.62225C4.59766 3.65631 3.81244 3.73022 3.62061 5.2016ZM1.4017 9.54767H4.59836V6.65387H2.87686C2.48978 6.65387 2.17599 6.3288 2.17599 5.92773C2.17599 3.47333 3.25616 2.59918 4.19467 2.30322V1.53973C2.83572 1.8031 1.4017 2.73621 1.4017 6.07721V9.54767Z" transform="translate(4)" fill="#EBAD45"/>
<path fill-rule="evenodd" clip-rule="evenodd" d="M3.62057 5.2016H4.8959C5.5047 5.2016 6 5.71478 6 6.34558V9.8559C6.00006 10.4868 5.5047 11 4.8959 11H1.1041C0.4953 11 0 10.4868 0 9.85602V6.07721C0 1.28912 2.64078 0.130188 4.85614 0.00109863C5.04825 -0.0098877 5.23691 0.0612183 5.37695 0.198425C5.51697 0.335571 5.59631 0.526489 5.59631 0.726074V2.89905C5.59631 3.27466 5.31998 3.5882 4.95895 3.62225C4.5976 3.65631 3.81238 3.73022 3.62057 5.2016ZM1.4017 9.54773H4.59833V6.65387H2.87683C2.48978 6.65387 2.17599 6.3288 2.17599 5.92773C2.17599 3.47333 3.25613 2.59918 4.19464 2.30322V1.53973C2.83569 1.8031 1.4017 2.73621 1.4017 6.07721V9.54773Z" transform="translate(11)" fill="#EBAD45"/>
<path d="M0.8535 0.1465C0.7605 0.0535 0.6315 0 0.5 0C0.3685 0 0.2395 0.0535 0.1465 0.1465C0.0535 0.2395 0 0.3685 0 0.5C0 0.6315 0.0535 0.7605 0.1465 0.8535C0.2395 0.9465 0.3685 1 0.5 1C0.6315 1 0.7605 0.9465 0.8535 0.8535C0.9465 0.7605 1 0.6315 1 0.5C1 0.3685 0.9465 0.2395 0.8535 0.1465Z" transform="translate(19 5)" fill="#EBAD45"/>
<path d="M23.5031 0H22.6171C22.2288 0 21.914 0.319689 21.914 0.71407C21.914 1.10845 22.2288 1.42814 22.6171 1.42814H23.5031C29.6185 1.42814 34.5938 6.48083 34.5938 12.6914C34.5938 17.9921 30.8919 22.6278 25.7915 23.7141C25.4659 23.7835 25.2328 24.0752 25.2328 24.413V28.562L20.9019 24.1638C20.7701 24.0299 20.5912 23.9546 20.4048 23.9546H12.4969C6.38149 23.9546 1.40625 18.9019 1.40625 12.6914C1.40625 10.7773 1.8874 8.88725 2.79773 7.22532C2.98659 6.88071 2.86446 6.44591 2.52513 6.25418C2.18573 6.06238 1.7576 6.18642 1.56888 6.53103C0.542461 8.40468 0 10.5349 0 12.6914C0 19.6895 5.60602 25.3828 12.4969 25.3828H20.1135L25.4387 30.7908C25.5732 30.9275 25.753 31 25.936 31C26.0266 31 26.118 30.9822 26.205 30.9456C26.4677 30.8351 26.639 30.5748 26.639 30.2859V24.9789C29.1831 24.3094 31.4835 22.8196 33.1645 20.7414C34.993 18.4809 36 15.622 36 12.6914C36 5.69335 30.394 7.1407e-05 23.5031 0Z" transform="translate(0 5)" fill="#EBAD45"/>
<path d="M18.2861 0H0.713945C0.319633 0 0 0.22385 0 0.5C0 0.77615 0.319633 1 0.713945 1H18.286C18.6803 1 19 0.77615 19 0.5C19 0.22385 18.6804 0 18.2861 0Z" transform="translate(9 13)" fill="#EBAD45"/>
<path d="M18.2861 0H0.713945C0.319633 0 0 0.22385 0 0.5C0 0.77615 0.319633 1 0.713945 1H18.286C18.6803 1 19 0.77615 19 0.5C19 0.22385 18.6804 0 18.2861 0Z" transform="translate(9 16)" fill="#EBAD45"/>
<path d="M18.2861 0H0.713945C0.319633 0 0 0.2239 0 0.5C0 0.7761 0.319633 1 0.713945 1H18.286C18.6803 1 19 0.7761 19 0.5C19 0.2239 18.6804 0 18.2861 0Z" transform="translate(9 20)" fill="#EBAD45"/>
<path d="M10.2724 0H0.727552C0.325725 0 0 0.2239 0 0.5C0 0.7761 0.325725 1 0.727552 1H10.2724C10.6743 1 11 0.7761 11 0.5C11 0.2239 10.6743 0 10.2724 0Z" transform="translate(17 24)" fill="#EBAD45"/>
<path d="M1.00799 0H0.992014C0.444125 0 0 0.2239 0 0.5C0 0.7761 0.444125 1 0.992014 1H1.00799C1.55588 1 2 0.7761 2 0.5C2 0.2239 1.55588 0 1.00799 0Z" transform="translate(13 24)" fill="#EBAD45"/>
</svg>
