<svg width="22" height="21" fill="none" xmlns="http://www.w3.org/2000/svg"><path fill-rule="evenodd" clip-rule="evenodd" d="M18.945 3.823L20.7 14.78h.99v4.98h-9.925v-4.98h.925V8.144H9.741v6.636h.924v4.98H.741v-4.98h.99L3.486 3.823h.949v-2.74h4.2v2.74H9.74v.954h2.949v-.954h1.107v-2.74h4.2v2.74h.948zm-1.821-1.867H14.67v1.867h2.454V1.956zm1.077 2.74l.413 2.575h-5.051V4.695H18.2zM7.76 1.955H5.309v1.867h2.454V1.956zm1.107 2.74V7.27h-5.05l.412-2.576h4.638zM1.614 18.887h8.178v-3.235H1.614v3.235zm7.254-4.108H2.615l1.063-6.636h5.19v6.636zm.873-7.509h2.949V5.65H9.741v1.622zm3.822.873h5.19l1.063 6.636h-6.253V8.144zm-.925 10.744h8.18v-3.235h-8.18v3.235z" fill="#252B7F" stroke="#252B7F" stroke-width=".5"/></svg>