<svg width="24" height="23" fill="none" xmlns="http://www.w3.org/2000/svg"><path d="M22.046 2.759L20.49 1.205a.822.822 0 0 0-1.166 0l-1.245 1.24 2.722 2.718 1.245-1.241a.821.821 0 0 0 0-1.163zM9.998 10.512l2.723 2.717 7.498-7.484-2.722-2.717-7.499 7.484zm-.588.581l-.58 3.297 3.303-.58-2.722-2.717z" fill="#252B7F"/><path d="M17.238 19.813H2.697V5.273h10.261l2.53-2.524H1.804c-.898 0-1.633.734-1.633 1.632v16.324c0 .898.735 1.632 1.633 1.632h16.324c.897 0 1.631-.734 1.631-1.632V9.034l-2.523 2.52v8.26z" fill="#252B7F"/></svg>