<svg width="16" height="16" fill="none" xmlns="http://www.w3.org/2000/svg"><path fill-rule="evenodd" clip-rule="evenodd" d="M9.495 10.572a5.285 5.285 0 0 1-3.437 1.253A5.392 5.392 0 0 1 .675 6.442c0-2.96 2.423-5.382 5.383-5.382a5.384 5.384 0 0 1 5.382 5.382 5.375 5.375 0 0 1-1.253 3.438l4.177 4.177a.49.49 0 0 1-.692.692l-4.177-4.177zm.967-4.13a4.408 4.408 0 0 0-4.404-4.404 4.416 4.416 0 0 0-4.404 4.404 4.408 4.408 0 0 0 4.404 4.404 4.4 4.4 0 0 0 4.404-4.404z" fill="#979797" stroke="#979797"/></svg>