<svg width="16" height="16" viewBox="0 0 16 16" fill="none" xmlns="http://www.w3.org/2000/svg">
<path fill-rule="evenodd" clip-rule="evenodd" d="M8.81989 9.51208C7.88898 10.2998 6.69543 10.7653 5.38263 10.7653C2.42279 10.7653 0 8.35437 0 5.38257C0 2.42273 2.42279 0 5.38263 0C8.35443 0 10.7653 2.41089 10.7653 5.38257C10.7653 6.68347 10.2878 7.88892 9.51208 8.81982L13.6893 12.9971C13.8802 13.188 13.8802 13.4983 13.6893 13.6893C13.5938 13.7848 13.4745 13.8325 13.3432 13.8325C13.2119 13.8325 13.0925 13.7848 12.9971 13.6893L8.81989 9.51208ZM9.78656 5.38257C9.78656 2.95984 7.81732 0.978638 5.38263 0.978638C2.95984 0.978638 0.978638 2.95984 0.978638 5.38257C0.978638 7.80542 2.94788 9.78662 5.38263 9.78662C7.81732 9.78662 9.78656 7.81726 9.78656 5.38257Z" transform="translate(1.05969 1.05969)" fill="#EBAD45" stroke="#EBAD45"/>
</svg>
