<svg width="16" height="15" viewBox="0 0 16 15" fill="none" xmlns="http://www.w3.org/2000/svg">
<path fill-rule="evenodd" clip-rule="evenodd" d="M14.431 13.2719C14.431 13.9121 13.9122 14.431 13.2719 14.431C12.6316 14.431 12.1127 13.9121 12.1127 13.2719C12.1127 7.23193 7.19904 2.31824 1.15912 2.31824C0.519287 2.31824 0 1.79941 0 1.15912C0 0.518829 0.519287 0 1.15912 0C8.4787 0 14.431 5.95367 14.431 13.2719ZM1.15961 5.42374C0.519287 5.42374 0.000488281 5.94257 0.000488281 6.58286C0.000488281 7.22314 0.519287 7.74197 1.15961 7.74197C4.20856 7.74197 6.69043 10.2238 6.69043 13.2728C6.69043 13.9131 7.2088 14.4319 7.84955 14.4319C8.48987 14.4319 9.00867 13.9131 9.00867 13.2728C9.00867 8.94467 5.48682 5.42374 1.15961 5.42374ZM0.349121 12.3515C0.349121 11.3959 1.12341 10.6203 2.0799 10.6203C3.03546 10.6203 3.81165 11.3959 3.81116 12.3515C3.81116 13.3076 3.03546 14.0828 2.0799 14.0828C1.12433 14.0828 0.349121 13.3076 0.349121 12.3515Z" transform="translate(0.852966 0.0986023)" fill="white"/>
</svg>
