<svg width="36" height="28" fill="none" xmlns="http://www.w3.org/2000/svg"><path fill-rule="evenodd" clip-rule="evenodd" d="M35.69 14.275a.64.64 0 0 1 0 1.095l-11.484 6.547a.629.629 0 0 1-.646-.013L.294 7.371a.639.639 0 0 1 .057-1.108L11.861.085a.63.63 0 0 1 .632 0l23.235 14.19h-.038zM1.914 6.868l22.02 13.776 10.193-5.84L12.145 1.358 1.914 6.868z" fill="#EBAD45"/><path d="M35.916 17.415a.628.628 0 0 0-.867-.239h.038l-11.152 6.445L.979 9.1a.63.63 0 0 0-.88.2.656.656 0 0 0 .197.896l23.26 14.706a.623.623 0 0 0 .644.013l11.481-6.618a.653.653 0 0 0 .235-.883z" fill="#EBAD45"/><path d="M35.861 20.385a.628.628 0 0 0-.695-.209l-11.21 6.44L.982 12.1a.633.633 0 0 0-.881.2.654.654 0 0 0 .196.895l23.312 14.707a.626.626 0 0 0 .647.013l11.507-6.626a.65.65 0 0 0 .1-.905z" fill="#EBAD45"/></svg>