<svg width="33" height="38" fill="none" xmlns="http://www.w3.org/2000/svg"><path fill-rule="evenodd" clip-rule="evenodd" d="M27.188 24.552c2.352.795 4.067 2.83 4.475 5.309L33 38H0l1.339-8.14c.407-2.478 2.122-4.513 4.475-5.308l5.223-1.765V22h1.214v1.013c.336.377 1.53 1.449 4.25 1.449 2.718 0 3.912-1.072 4.249-1.45V22h1.214v.787l5.224 1.765zm-25.56 11.03l-.194 1.187h4.382a5.092 5.092 0 0 1-.152-.676l-4.035-.512zm3.95-.74l-3.75-.475.708-4.303a5.506 5.506 0 0 1 3.662-4.344l.041-.014.53 5.377c-.32.54-1.163 2.12-1.19 3.76zm1.54 1.927h18.765c.132-.267.33-.832.33-1.846 0-1.641-1.1-3.334-1.113-3.35l-.12-.184.6-6.082-4.033-1.363c-.599.61-2.111 1.748-5.047 1.748-2.935 0-4.447-1.139-5.047-1.748L7.42 25.307l.6 6.081-.12.184c-.011.017-1.113 1.72-1.113 3.351 0 1.014.198 1.58.33 1.846zM26.76 25.706l.042.014a5.506 5.506 0 0 1 3.662 4.344l.707 4.303-3.75.476c-.027-1.64-.87-3.22-1.191-3.76l.53-5.377zm.576 10.387a5.202 5.202 0 0 1-.152.676h4.382l-.194-1.188-4.036.512z" fill="#EBAD45"/><path fill-rule="evenodd" clip-rule="evenodd" d="M10.46 19.666a6.805 6.805 0 0 1-1.716-2.917A3.095 3.095 0 0 1 6 13.676c0-.98.466-1.9 1.235-2.484V5.79c0-3.193 2.58-5.79 5.752-5.79h7.026c3.171 0 5.752 2.597 5.752 5.789v5.403A3.125 3.125 0 0 1 27 13.676a3.095 3.095 0 0 1-2.744 3.073 6.815 6.815 0 0 1-1.717 2.917l-2.408 2.424a3.058 3.058 0 0 1-2.184.91h-2.894a3.058 3.058 0 0 1-2.184-.91l-2.408-2.424zm11.206-.88a5.578 5.578 0 0 0 1.628-3.955v-1.948c-.377.1-.786.171-1.235.171-.93 0-1.578-.267-2.263-.55-.825-.341-1.678-.693-3.296-.693-1.618 0-2.471.352-3.296.693-.685.283-1.332.55-2.263.55-.449 0-.858-.071-1.235-.171v1.948c0 1.494.579 2.899 1.628 3.956l2.408 2.424c.35.352.815.546 1.31.546h2.895c.495 0 .96-.194 1.31-.546l2.409-2.424zm.393-6.975c-.687 0-1.175-.202-1.793-.457l-.002-.001c-.848-.35-1.903-.785-3.764-.785-1.861 0-2.916.435-3.764.785h-.001c-.618.256-1.107.458-1.794.458-1.01 0-1.815-.44-2.264-.753.688-.906 2.806-2.977 7.823-2.977 5.024 0 7.141 2.078 7.824 2.979-.444.313-1.245.75-2.265.75zm2.441 3.624a1.86 1.86 0 0 0 1.265-1.76c0-.62-.318-1.191-.826-1.536a5.687 5.687 0 0 1-.41.25v2.442c0 .203-.011.404-.029.604zM8.47 5.789c0-2.507 2.026-4.546 4.517-4.546h7.026c2.49 0 4.516 2.04 4.516 4.546v3.676c-1.263-1.172-3.697-2.627-8.029-2.627S9.734 8.293 8.47 9.465V5.79zm0 6.6a5.473 5.473 0 0 1-.41-.25 1.87 1.87 0 0 0-.825 1.537c0 .82.533 1.51 1.265 1.759a7.05 7.05 0 0 1-.03-.605v-2.441z" fill="#EBAD45"/><path d="M22.336 30.263c-.088.9-.89 1.579-1.867 1.579h-7.937c-.977 0-1.78-.68-1.868-1.58L10.245 26 9 26.105l.418 4.263c.148 1.5 1.486 2.632 3.114 2.632h7.936c1.628 0 2.966-1.132 3.114-2.633L24 26.105 22.755 26l-.419 4.263z" fill="#EBAD45"/></svg>