<svg width="36" height="33" fill="none" xmlns="http://www.w3.org/2000/svg"><path d="M21.238 7h-6.476c-.424 0-.762.222-.762.5s.338.5.762.5h6.476c.424 0 .762-.222.762-.5s-.338-.5-.762-.5z" fill="#EBAD45"/><path fill-rule="evenodd" clip-rule="evenodd" d="M28.33 31.539a.726.726 0 0 0-.728.73c0 .406.324.731.728.731h2.307a.726.726 0 0 0 .727-.73V22.151h1.638a.726.726 0 0 0 .728-.73v-2.694h1.543a.726.726 0 0 0 .727-.73.726.726 0 0 0-.727-.73H28.94l-.772-4.288a2.112 2.112 0 0 0-2.072-1.741h-.852L24.752 2.9A3.079 3.079 0 0 0 21.688 0H14.32a3.073 3.073 0 0 0-3.064 2.9l-.492 8.339h-.852A2.1 2.1 0 0 0 7.84 12.98l-.771 4.287H.728a.726.726 0 0 0-.728.731c0 .406.323.73.727.73H2.27v2.694c0 .406.324.73.728.73h1.58V32.27c0 .406.322.731.726.731h2.307a.726.726 0 0 0 .728-.73.726.726 0 0 0-.728-.731h-1.58v-9.387H29.91v9.387h-1.58zm-2.241-18.84c.316 0 .588.23.647.54l.727 4.028h-1.859l-.272-4.567h.757zM14.319 1.47c-.852 0-1.557.664-1.609 1.52l-.852 14.278h12.284L23.29 2.99a1.619 1.619 0 0 0-1.61-1.52h-7.36zM9.264 13.24a.656.656 0 0 1 .647-.54h.764l-.272 4.568H8.544l.72-4.029zm-5.54 5.49v1.962h28.551V18.73H3.725z" fill="#EBAD45"/><path d="M25 23.779c0-.433-.317-.779-.714-.779H10.714c-.397 0-.714.346-.714.779 0 .433.317.779.714.779h6.072v2.974h-2.92c-.397 0-.715.346-.715.779v3.91c0 .433.318.779.714.779.397 0 .714-.346.714-.779V29.09h2.207v3.131c0 .433.317.779.714.779.397 0 .714-.346.714-.779V29.09h2.207v3.131c0 .433.317.779.714.779.396 0 .714-.346.714-.779v-3.91c0-.433-.318-.78-.714-.78h-2.921v-2.973h6.072c.397 0 .714-.346.714-.78z" fill="#EBAD45"/></svg>