<svg width="41" height="22" fill="none" xmlns="http://www.w3.org/2000/svg"><path fill-rule="evenodd" clip-rule="evenodd" d="M39.647 1h-27.71a.36.36 0 0 0-.353.359v4.894H5.65a.359.359 0 0 0 0 .718h5.933v3.523H1.353a.36.36 0 0 0 0 .718h10.23v3.817H8.12a.359.359 0 0 0 0 .718h3.464v4.894c0 .196.16.359.353.359h27.71a.359.359 0 0 0 .353-.359V1.391c0-.228-.16-.391-.353-.391zM12.29 20.25V4.067c.257.424.546.816.866 1.174a5.314 5.314 0 0 0 3.785 1.6h17.672a5.314 5.314 0 0 0 4.65-2.774V20.25H12.29zM34.644 6.122c1.283 0 2.47-.554 3.303-1.403.77-.783 1.251-1.827 1.347-3.001H12.322a4.637 4.637 0 0 0 1.347 3.001c.865.881 2.02 1.403 3.303 1.403h17.672z" fill="#EBAD45" stroke="#EBAD45" stroke-width=".5"/><path fill-rule="evenodd" clip-rule="evenodd" d="M26.5 8c.406 0 .781.188 1.063.438.28.28.437.656.437 1.062s-.156.781-.438 1.063A1.488 1.488 0 0 1 26.5 11c-.406 0-.781-.156-1.063-.438A1.488 1.488 0 0 1 25 9.5c0-.406.156-.781.438-1.063A1.488 1.488 0 0 1 26.5 8zm0 2.313a.783.783 0 0 0 .563-.25.732.732 0 0 0 .25-.563.783.783 0 0 0-.25-.563.732.732 0 0 0-.563-.25.783.783 0 0 0-.563.25.732.732 0 0 0-.25.563c0 .219.094.406.25.563.125.156.344.25.563.25zM26.5 3A1.49 1.49 0 0 1 28 4.5c0 .406-.156.781-.438 1.063A1.488 1.488 0 0 1 26.5 6c-.406 0-.781-.156-1.063-.406A1.488 1.488 0 0 1 25 4.53c0-.406.156-.781.438-1.062.28-.281.656-.469 1.062-.469zm0 2.313a.783.783 0 0 0 .563-.25.732.732 0 0 0 .25-.563.783.783 0 0 0-.25-.563.732.732 0 0 0-.563-.25.783.783 0 0 0-.563.25.783.783 0 0 0-.25.563c0 .219.094.406.25.563.125.156.344.25.563.25z" fill="#EBAD45" stroke="#EBAD45" stroke-width=".5"/></svg>