<svg width="32" height="32" fill="none" xmlns="http://www.w3.org/2000/svg"><path fill-rule="evenodd" clip-rule="evenodd" d="M19 10.5c0 1.93-1.57 3.5-3.5 3.5S12 12.43 12 10.5 13.57 7 15.5 7 19 8.57 19 10.5zm-1 0C18 9.121 16.879 8 15.5 8a2.503 2.503 0 0 0-2.5 2.5c0 1.379 1.121 2.5 2.5 2.5s2.5-1.121 2.5-2.5z" fill="#EDAC3B" stroke="#EBAD45" stroke-width=".5"/><path fill-rule="evenodd" clip-rule="evenodd" d="M23.101 17.075L15.501 28 7.889 17.06c-2.84-3.768-2.427-9.986.894-13.29A9.462 9.462 0 0 1 15.5 1a9.46 9.46 0 0 1 6.718 2.77c3.32 3.305 3.733 9.522.882 13.305zm-7.6-15.089a8.48 8.48 0 0 0-6.018 2.48c-2.996 2.984-3.366 8.599-.79 12.017l6.808 9.784 6.797-9.77c2.587-3.432 2.218-9.047-.78-12.03a8.476 8.476 0 0 0-6.017-2.48z" fill="#EDAC3B" stroke="#EBAD45" stroke-width=".5"/><path d="M22.058 22.004c-.274-.035-.523.173-.555.464-.032.29.165.554.439.587C27.2 23.711 30 25.477 30 26.5c0 1.437-5.326 3.441-14 3.441s-14-2.004-14-3.44c0-1.024 2.8-2.79 8.059-3.446.274-.033.47-.297.438-.587-.033-.29-.281-.5-.556-.464C4.677 22.661 1 24.51 1 26.5 1 28.736 6.152 31 16 31c9.848 0 15-2.264 15-4.5 0-1.99-3.677-3.84-8.942-4.496z" fill="#EDAC3B" stroke="#EBAD45" stroke-width=".5"/></svg>