<svg width="31" height="29" fill="none" xmlns="http://www.w3.org/2000/svg"><path fill-rule="evenodd" clip-rule="evenodd" d="M24.519 1.863l1.324 1.169L9.12 12.31 1.022 7.78l.756-1.46 7.34 4.054 15.4-8.511zM21.15 0l1.779.877-13.811 7.67-6.432-3.542 1.097-1.279 5.335 2.959L21.151 0zm5.865 4.237L28 5.516 9.119 16 0 10.959l.416-1.607 8.703 4.822 17.897-9.937z" fill="#26B44E"/><path fill-rule="evenodd" clip-rule="evenodd" d="M30.163 9.074c.558 1.531.837 3.135.837 4.815 0 1.679-.28 3.308-.837 4.888l-.38 1.001a15.38 15.38 0 0 1-3.31 4.815 15.33 15.33 0 0 1-4.944 3.185A15.555 15.555 0 0 1 15.48 29c-2.105 0-4.12-.408-6.048-1.222a16.024 16.024 0 0 1-4.907-3.185 14.587 14.587 0 0 1-3.309-4.815A14.862 14.862 0 0 1 0 13.888v-1l9.433 5.223L29.326 7l.837 2.074z" fill="#26B44E"/></svg>