<svg width="42" height="13" fill="none" xmlns="http://www.w3.org/2000/svg"><path d="M17.308 1L15 13h3.69L21 1h-3.692zm-5.911.003l-3.33 8.195L7.71 7.96C7.054 6.47 5.19 4.328 3 2.98L6.046 13l3.598-.006L15 1l-3.603.003z" fill="#EBAD45"/><path d="M6.845 2.087C6.646 1.272 6.07 1.03 5.353 1H.044L0 1.266C4.132 2.334 6.866 4.906 8 8L6.845 2.087zm19.909.543a5.997 5.997 0 0 1 2.494.483l.301.146L30 .529A8.38 8.38 0 0 0 27.015 0c-3.293 0-5.614 1.708-5.632 4.156-.022 1.81 1.653 2.82 2.918 3.422 1.299.618 1.734 1.011 1.728 1.563-.01.843-1.035 1.23-1.993 1.23-1.334 0-2.043-.19-3.138-.66l-.43-.2L20 12.328c.78.352 2.22.655 3.713.671 3.503 0 5.78-1.688 5.804-4.304.014-1.431-.875-2.523-2.8-3.42-1.166-.584-1.88-.972-1.873-1.562 0-.523.606-1.083 1.91-1.083z" fill="#EBAD45"/><path fill-rule="evenodd" clip-rule="evenodd" d="M36.713 1h2.583L42 13h-3.1s-.308-1.38-.408-1.799l-2.346-.002-1.934-.003c-.13.324-.702 1.804-.702 1.804H30l4.963-11.004c.352-.782.948-.996 1.75-.996zm-.208 4.383S35.45 8.05 35.174 8.74h2.776l-.774-3.467-.225-1.035c-.085.221-.198.508-.289.74-.095.242-.166.423-.157.406z" fill="#EBAD45"/></svg>