<svg width="24" height="23" fill="none" xmlns="http://www.w3.org/2000/svg"><path d="M17 12h3v3h-3v-3zm-4 2h4v4h-4v-4zm9-3h2v2h-2v-2zm-8-8h3v3h-3V3zm6 4h2v2h-2V7zm-9 2h4v4h-4V9zM9 4h4v4H9V4zm6 3h3v3h-3V7zm3-4h2v2h-2V3zm1 13h3v3h-3v-3z" fill="#EBAD45"/><path d="M16.648 17.852l-2.72 2.465-4.591-5.023 1.277-1.105-3.215-3.54 1.284-1.106-3.262-3.535L10.512 1.5l1.617 1.74L14.86.846l1.614 1.644 1.076-.947c-.24-.137-.481-.263-.725-.377A11.808 11.808 0 0 0 11.697 0C5.255 0 0 5.166 0 11.5S5.255 23 11.697 23c2.092 0 4.064-.545 5.764-1.499.561-.312 1.072-.65 1.539-1.005l-2.352-2.644z" fill="#EBAD45"/></svg>