<svg width="27" height="26" fill="none" xmlns="http://www.w3.org/2000/svg"><path fill-rule="evenodd" clip-rule="evenodd" d="M24.997 9.232c1.069.012 1.808.538 1.96 1.415.042.248.047.506.04.751.005 3.938.005 7.863-.003 11.793v.104c.002.707.004 1.41-.69 1.967-.561.463-1.251.617-2 .617-2.587.007-5.168.006-7.753.006l-2.587-.001h-2.598c-2.599.001-5.2.002-7.796-.005-1.736 0-2.992-.786-3.476-2.157a1.923 1.923 0 0 1-.085-.599c-.001-1.48 0-2.959 0-4.438 0-2.551.001-5.102-.009-7.656-.007-1.423.8-2.421 2.248-3.112C7.17 5.576 12.085 3.234 17.003.887c.805-.383 1.619-.648 2.545-.315.805.292 1.156.856 1.156 1.532.002.643.006 1.286.01 1.93.018 3.627.036 7.251-.031 10.876-.026 1.317-.87 2.36-2.436 2.889-2.093.702-4.191 1.396-6.29 2.09-1.378.456-2.757.912-4.134 1.37l-.651.215c-.652.214-1.304.428-1.948.658-.278.095-.55.234-.763.407-.161.142-.367.42-.301.535.1.173.423.351.657.351a7.383 7.383 0 0 0 1.616-.168c2.88-.626 5.757-1.261 8.633-1.897 1.8-.398 3.602-.796 5.404-1.191 1.506-.335 2.76-1.654 2.767-2.938.01-2.45.019-4.904-.011-7.36-.005-.5.161-.711.793-.646.206.023.415.017.626.012.117-.003.234-.007.352-.005zM14.839 7.77c-1.16.145-1.92.711-2.27 1.617-.38.984.232 1.754 1.332 1.754 1.317.005 2.65-1.235 2.484-2.302-.11-.692-.779-1.167-1.546-1.069z" fill="#EBAD45"/></svg>